<?xml version="1.0" standalone="no"?>
<!DOCTYPE svg PUBLIC "-//W3C//DTD SVG 1.1//EN" "http://www.w3.org/Graphics/SVG/1.1/DTD/svg11.dtd" >
<svg xmlns="http://www.w3.org/2000/svg">
<metadata>Generated by IcoMoon</metadata>
<defs>
<font id="Genee-Group" horiz-adv-x="1024">
<font-face units-per-em="1024" ascent="960" descent="-64" />
<missing-glyph horiz-adv-x="1024" />
<glyph unicode="&#x20;" horiz-adv-x="512" d="" />
<glyph unicode="&#xe900;" d="M960 958.4c34.394-0.091 62.24-27.993 62.24-62.4 0 0 0 0 0 0v0-896c0 0 0 0 0 0 0-34.406-27.846-62.309-62.231-62.4h-896.009c-34.463 0-62.4 27.937-62.4 62.4v0 896c0 34.463 27.937 62.4 62.4 62.4v0h896zM960 960h-896c-35.346 0-64-28.654-64-64v0-896c0-35.346 28.654-64 64-64v0h896c35.346 0 64 28.654 64 64v0 896c0 35.346-28.654 64-64 64v0z" />
<glyph unicode="&#xe901;" d="M185.12 180.32v404.96c0 8.837-7.163 16-16 16v0 0c-8.837 0-16-7.163-16-16v0-404.96c0-35.346 28.654-64 64-64v0h401.92c8.837 0 16 7.163 16 16v0 0c0 8.837-7.163 16-16 16v0h-401.92c-17.673 0-32 14.327-32 32v0z" />
<glyph unicode="&#xe902;" d="M872 241.92v452.64c0 25.273-20.487 45.76-45.76 45.76v0h-548.48c-25.273 0-45.76-20.487-45.76-45.76v0-452.64c0-25.273 20.487-45.76 45.76-45.76v0h548.48c25.273 0 45.76 20.487 45.76 45.76v0zM840 248.32c0-11.134-9.026-20.16-20.16-20.16v0h-535.68c-11.134 0-20.16 9.026-20.16 20.16v0 439.68c0 11.134 9.026 20.16 20.16 20.16v0h535.68c11.134 0 20.16-9.026 20.16-20.16v0z" />
<glyph unicode="&#xe903;" d="M334.88 360.48c8.837 0 16-7.163 16-16v-48c0-8.837-7.163-16-16-16s-16 7.163-16 16v48c0 8.837 7.163 16 16 16z" />
<glyph unicode="&#xe904;" d="M476 456.48c8.837 0 16-7.163 16-16v-144c0-8.837-7.163-16-16-16s-16 7.163-16 16v144c0 8.837 7.163 16 16 16z" />
<glyph unicode="&#xe905;" d="M617.12 408.48c8.837 0 16-7.163 16-16v-96c0-8.837-7.163-16-16-16s-16 7.163-16 16v96c0 8.837 7.163 16 16 16z" />
<glyph unicode="&#xe906;" d="M758.4 504.48c8.837 0 16-7.163 16-16v-192c0-8.837-7.163-16-16-16s-16 7.163-16 16v192c0 8.837 7.163 16 16 16z" />
<glyph unicode="&#xe907;" d="M333.6 502.88l-11.84 10.88c61.92 67.36 93.92 72.64 139.2 73.28 35.254-0.055 67.686-12.091 93.454-32.252l-0.334 0.252c21.856-17.306 49.59-28.069 79.802-28.955l0.198-0.005c48 0 104.8 47.040 119.52 98.88l16-4.32c-16-59.040-80-110.56-134.88-110.56v0c-33.396 1.171-63.812 13.032-88.159 32.243l0.319-0.243c-22.646 17.768-51.464 28.614-82.802 28.959l-0.078 0.001h-2.080c-41.6-0.64-69.6-4.32-128.32-68.16z" />
<glyph unicode="&#xe908;" d="M350.88 517.28c0-8.837-7.163-16-16-16s-16 7.163-16 16c0 8.837 7.163 16 16 16s16-7.163 16-16z" />
<glyph unicode="&#xe909;" d="M492 580c0-8.837-7.163-16-16-16s-16 7.163-16 16c0 8.837 7.163 16 16 16s16-7.163 16-16z" />
<glyph unicode="&#xe90a;" d="M633.12 518.88c0-8.837-7.163-16-16-16s-16 7.163-16 16c0 8.837 7.163 16 16 16s16-7.163 16-16z" />
<glyph unicode="&#xe90b;" d="M774.4 608.64c0-8.837-7.163-16-16-16s-16 7.163-16 16c0 8.837 7.163 16 16 16s16-7.163 16-16z" />
<glyph unicode="&#xe90c;" glyph-name="kong" d="M654.72 148.32l-39.52 52h-17.12v-84.48h18.24v53.76l40.96-53.76h15.84v84.48h-18.4v-52zM315.36 184.32h39.68l-37.76-68.48h20.96l37.92 70.56v13.92h-60.8v-16zM740.8 148.48h18.72v-12.16c-2.287-1.649-4.95-2.963-7.817-3.795l-0.183-0.045c-2.788-0.813-5.99-1.281-9.301-1.281-0.105 0-0.21 0-0.315 0.001h0.016c-0.038 0-0.083 0-0.128 0-3.71 0-7.24 0.765-10.443 2.146l0.171-0.066c-3.192 1.347-5.908 3.241-8.151 5.591l-0.009 0.009c-2.234 2.372-4.025 5.192-5.221 8.306l-0.059 0.174c-1.216 3.15-1.92 6.795-1.92 10.604 0 0.041 0 0.081 0 0.122v-0.006c0 0.015 0 0.032 0 0.050 0 3.667 0.705 7.169 1.987 10.379l-0.067-0.189c1.26 3.21 2.991 5.969 5.14 8.343l-0.020-0.023c2.127 2.311 4.677 4.196 7.532 5.538l0.148 0.062c2.769 1.31 6.014 2.077 9.439 2.080h0.001c0.175 0.003 0.381 0.005 0.587 0.005 2.858 0 5.635-0.352 8.288-1.015l-0.235 0.050c2.672-0.697 5.014-1.683 7.171-2.951l-0.131 0.071c2.417-1.468 4.509-2.999 6.458-4.689l-0.058 0.049 11.68 14.080c-1.856 1.859-3.84 3.589-5.938 5.177l-0.142 0.103c-2.147 1.348-4.625 2.586-7.224 3.58l-0.296 0.1c-2.458 0.93-5.365 1.709-8.368 2.203l-0.272 0.037c-1.557 0.132-3.37 0.207-5.2 0.207s-3.643-0.075-5.435-0.223l0.235 0.016c-0.032 0-0.069 0-0.107 0-5.107 0-10.023-0.82-14.624-2.334l0.33 0.094c-8.931-3.005-16.328-8.593-21.511-15.869l-0.089-0.131c-2.522-3.44-4.589-7.42-5.994-11.699l-0.086-0.301c-1.32-4.018-2.081-8.644-2.081-13.446 0-0.11 0-0.22 0.001-0.331v0.017c-0.001-0.111-0.002-0.242-0.002-0.374 0-6.085 1.176-11.896 3.312-17.218l-0.11 0.311c2.178-5.368 5.267-9.946 9.117-13.757l0.003-0.003c3.911-3.866 8.596-6.958 13.801-9.022l0.279-0.098c5.312-2.127 11.47-3.36 17.916-3.36 0.058 0 0.116 0 0.173 0h-0.009c9.695 0.187 18.718 2.897 26.491 7.497l-0.251-0.137c3.626 2.158 6.767 4.484 9.653 7.087l-0.053-0.047v36.8h-36.8zM474.72 200.32h-22.56l-34.24-36.96v36.96h-18.72v-84.48h18.72v25.76l9.76 10.24 26.24-36h22.4l-36 48.64 34.4 35.84zM251.84 193.76l3.84-15.2 14.72 3.52v-66.24h18.4v85.12h-12.8l-24.16-7.2zM565.92 184c-2.712 3.659-5.883 6.779-9.473 9.353l-0.127 0.087c-3.533 2.581-7.618 4.701-12.008 6.151l-0.312 0.089c-4.402 1.417-9.465 2.235-14.72 2.235s-10.318-0.817-15.071-2.331l0.351 0.097c-4.761-1.529-8.901-3.65-12.611-6.33l0.131 0.090c-7.375-5.241-12.954-12.577-15.909-21.138l-0.091-0.302c-1.401-4.104-2.22-8.833-2.24-13.75v-0.010c-0.001-0.1-0.001-0.219-0.001-0.338 0-4.794 0.761-9.411 2.17-13.736l-0.088 0.313c1.5-4.58 3.566-8.558 6.165-12.123l-0.085 0.123c2.71-3.661 5.881-6.782 9.473-9.353l0.127-0.087c3.533-2.581 7.618-4.701 12.008-6.151l0.312-0.089c4.402-1.417 9.465-2.235 14.72-2.235s10.318 0.817 15.071 2.331l-0.351-0.097c4.761 1.529 8.901 3.65 12.611 6.33l-0.131-0.090c7.367 5.248 12.944 12.582 15.909 21.137l0.091 0.303c1.404 4.104 2.223 8.834 2.24 13.752v0.008c0.001 0.1 0.001 0.219 0.001 0.338 0 4.794-0.761 9.411-2.17 13.736l0.088-0.313c-1.497 4.58-3.563 8.559-6.165 12.122l0.085-0.122zM554.72 157.76c-0.005-3.685-0.71-7.204-1.987-10.433l0.067 0.193c-1.277-3.225-3.064-5.989-5.29-8.331l0.010 0.011c-2.212-2.34-4.872-4.23-7.845-5.539l-0.155-0.061c-3.001-1.315-6.498-2.080-10.174-2.080-0.023 0-0.047 0-0.070 0h0.004c-0.095-0.001-0.208-0.002-0.32-0.002-3.644 0-7.109 0.766-10.243 2.146l0.163-0.064c-3.193 1.411-5.906 3.355-8.147 5.746l-0.013 0.014c-2.217 2.382-4.005 5.198-5.219 8.302l-0.061 0.178c-1.21 3.037-1.915 6.555-1.92 10.238v0.002c0.017 3.686 0.72 7.203 1.988 10.437l-0.068-0.197c1.277 3.225 3.064 5.989 5.29 8.331l-0.010-0.011c2.215 2.336 4.873 4.226 7.844 5.539l0.156 0.061c2.99 1.315 6.476 2.080 10.141 2.080 0.035 0 0.069 0 0.104 0h-0.005c0.095 0.001 0.208 0.002 0.32 0.002 3.644 0 7.109-0.766 10.243-2.146l-0.163 0.064c3.191-1.415 5.904-3.359 8.148-5.747l0.012-0.013c2.217-2.382 4.005-5.198 5.219-8.302l0.061-0.178c1.21-3.037 1.915-6.555 1.92-10.238v-0.002zM355.36 390.4c0-6.981-5.659-12.64-12.64-12.64s-12.64 5.659-12.64 12.64c0 6.981 5.659 12.64 12.64 12.64s12.64-5.659 12.64-12.64zM317.44 480.96h50.56v-21.12h-50.56v21.12zM795.2 583.68c1.642-10.991 2.58-23.675 2.58-36.579 0-17.053-1.638-33.723-4.764-49.861l0.265 1.64c16.492-14.001 26.888-34.75 26.888-57.926 0-41.551-33.414-75.297-74.838-75.834l-0.051-0.001h-441.28c-55.803 0-101.040 45.237-101.040 101.040s45.237 101.040 101.040 101.040v0-69.6h75.84v222.4h25.28v-86.56c28.663 43.787 77.482 72.312 132.964 72.312 87.482 0 158.4-70.918 158.4-158.4 0-11.499-1.225-22.711-3.552-33.514l0.188 1.042c9.705 1.833 20.87 2.882 32.279 2.882 15.697 0 30.931-1.985 45.464-5.717l-1.263 0.275c1.638 10.403 2.574 22.4 2.574 34.615 0 129.279-104.801 234.080-234.080 234.080-60.797 0-116.18-23.178-157.795-61.179l0.182 0.164h-12.48v21.6h-50.56v-21.6h-13.44v-77.12c-97.644 0-176.8-79.156-176.8-176.8s79.156-176.8 176.8-176.8v0h440.48c0.085 0 0.186 0 0.286 0 83.682 0 151.52 67.838 151.52 151.52 0 65.605-41.695 121.472-100.031 142.547l-1.055 0.333z" />
<glyph unicode="&#xe90d;" glyph-name="add-building" d="M814.080 661.6h-96v96c0 8.837-7.163 16-16 16s-16-7.163-16-16v0-96h-96c-8.837 0-16-7.163-16-16s7.163-16 16-16v0h96v-96c0-8.837 7.163-16 16-16s16 7.163 16 16v0 96h96c8.837 0 16 7.163 16 16s-7.163 16-16 16v0zM493.12 764.48l-288-92.48c-6.555-2.1-11.217-8.14-11.217-15.268 0-0.257 0.006-0.513 0.018-0.768l-0.001 0.036v-517.6c0-8.837 7.163-16 16-16v0h288c8.837 0 16 7.163 16 16v0 610.88c-0.036 8.809-7.185 15.937-16 15.937-1.714 0-3.365-0.27-4.913-0.769l0.113 0.032zM481.92 154.4h-256v491.2l256 81.76zM602.56 500c-2.684 2.106-6.11 3.378-9.832 3.378-5.082 0-9.611-2.37-12.542-6.065l-0.025-0.033c-2.106-2.684-3.378-6.11-3.378-9.832 0-5.082 2.37-9.611 6.065-12.542l0.033-0.025 91.84-72.32v-248.16h-103.68c-8.837 0-16-7.163-16-16s7.163-16 16-16v0h119.52c8.837 0 16 7.163 16 16v0 272c0 0.026 0 0.056 0 0.086 0 5.075-2.362 9.597-6.048 12.529l-0.033 0.025zM289.92 266.56h128c8.837 0 16 7.163 16 16s-7.163 16-16 16v0h-128c-8.837 0-16-7.163-16-16s7.163-16 16-16v0zM289.92 412h128c8.837 0 16 7.163 16 16s-7.163 16-16 16v0h-128c-8.837 0-16-7.163-16-16s7.163-16 16-16v0zM353.92 557.6h64c8.837 0 16 7.163 16 16s-7.163 16-16 16v0h-64c-8.837 0-16-7.163-16-16s7.163-16 16-16v0z" />
<glyph unicode="&#xe90e;" glyph-name="add-member" d="M494.080 426.24c42.966-0.072 83.486-10.471 119.232-28.848l-1.472 0.688c1.941-0.903 4.214-1.429 6.61-1.429 6.016 0 11.256 3.32 13.989 8.228l0.042 0.081c1.159 2.159 1.839 4.724 1.839 7.448 0 5.988-3.289 11.207-8.159 13.95l-0.080 0.042c-15.136 7.815-32.874 14.848-51.352 20.129l-2.088 0.511c53.282 29.712 88.725 85.729 88.725 150.024 0 94.551-76.649 171.2-171.2 171.2s-171.2-76.649-171.2-171.2c0-65.123 36.361-121.753 89.889-150.696l0.906-0.448c-123.481-37.39-211.855-150.115-212-283.503v-18.417c0-8.837 7.163-16 16-16s16 7.163 16 16v0 18.4c0.076 144.363 116.084 261.607 259.965 263.678l0.195 0.002h4.16zM351.2 597.12c0 0.032 0 0.069 0 0.107 0 76.878 62.322 139.2 139.2 139.2s139.2-62.322 139.2-139.2c0-75.528-60.152-137.006-135.163-139.143l-0.197-0.004h-4.16c-76.684 0.182-138.789 62.343-138.88 139.031v0.009zM810.24 272h-96v96c0 8.837-7.163 16-16 16s-16-7.163-16-16v0-96h-96c-8.837 0-16-7.163-16-16s7.163-16 16-16v0h96v-96c0-8.837 7.163-16 16-16s16 7.163 16 16v0 96h96c8.837 0 16 7.163 16 16s-7.163 16-16 16v0z" />
<glyph unicode="&#xe90f;" glyph-name="add-room" d="M453.44 749.12l-241.28-55.84c-6.96-1.837-12.008-8.076-12.008-15.494 0-0.178 0.003-0.355 0.009-0.532l-0.001 0.026v-504.16c-0.003-0.106-0.004-0.231-0.004-0.356 0-7.648 5.366-14.042 12.538-15.624l0.106-0.020 241.28-45.12c1.011-0.227 2.172-0.358 3.364-0.358 8.837 0 16 7.163 16 16 0 0.126-0.001 0.251-0.004 0.376v-0.019 605.6c0 0.008 0 0.018 0 0.028 0 8.837-7.163 16-16 16-1.421 0-2.8-0.185-4.112-0.533l0.112 0.025zM441.44 147.68l-209.28 38.4v479.2l209.28 48zM418.4 393.92c0-12.548-7.88-22.72-17.6-22.72s-17.6 10.172-17.6 22.72c0 12.548 7.88 22.72 17.6 22.72s17.6-10.172 17.6-22.72zM618.4 566.080c-8.837 0-16-7.163-16-16v0-349.28h-68c-8.837 0-16-7.163-16-16s7.163-16 16-16v0h84c8.837 0 16 7.163 16 16v0 365.28c0 8.837-7.163 16-16 16v0zM807.84 672h-96v96c0 8.837-7.163 16-16 16v0 0c-8.837 0-16-7.163-16-16v0-96h-96c-8.837 0-16-7.163-16-16s7.163-16 16-16v0h96v-96c0-8.837 7.163-16 16-16v0 0c8.837 0 16 7.163 16 16v0 96h96c8.837 0 16 7.163 16 16s-7.163 16-16 16v0z" />
<glyph unicode="&#xe910;" glyph-name="add" d="M800 464h-272v272c0 8.837-7.163 16-16 16s-16-7.163-16-16v0-272h-272c-8.837 0-16-7.163-16-16s7.163-16 16-16v0h272v-272c0-8.837 7.163-16 16-16s16 7.163 16 16v0 272h272c8.837 0 16 7.163 16 16s-7.163 16-16 16v0z" />
<glyph unicode="&#xe911;" glyph-name="alert" d="M885.76 168.64l-343.040 594.24c-6.247 10.73-17.695 17.827-30.8 17.827s-24.553-7.098-30.709-17.658l-0.091-0.169-342.88-594.24c-2.992-5.095-4.759-11.221-4.759-17.76 0-19.603 15.879-35.497 35.477-35.52h686.082c19.599 0.023 35.479 15.917 35.479 35.52 0 6.539-1.767 12.665-4.85 17.928l0.091-0.168zM159.040 145.28l352.96 611.2 352.96-611.2zM494.4 550.080v-212.8c0-9.72 7.88-17.6 17.6-17.6s17.6 7.88 17.6 17.6v0 212.8c0 9.72-7.88 17.6-17.6 17.6s-17.6-7.88-17.6-17.6v0zM536 253.28c0-13.255-10.745-24-24-24s-24 10.745-24 24c0 13.255 10.745 24 24 24s24-10.745 24-24z" />
<glyph unicode="&#xe912;" glyph-name="authority-management" d="M794.080 744.64c-16-1.44-30.88-2.24-46.56-2.24-0.152 0-0.333 0-0.514 0-83.311 0-162.026 19.677-231.752 54.636l2.985-1.356c-1.885 0.844-4.085 1.336-6.4 1.336s-4.515-0.492-6.502-1.376l0.102 0.040c-66.74-33.603-145.455-53.28-228.766-53.28-0.068 0-0.137 0-0.205 0h0.011c-16 0-32 0-46.56 2.24-0.384 0.040-0.829 0.063-1.28 0.063-7.212 0-13.064-5.819-13.12-13.017v-268.485c9.85-173.975 129.491-317.513 290.302-362.999l2.818-0.681c1.127-0.325 2.422-0.511 3.76-0.511s2.633 0.187 3.859 0.535l-0.099-0.024c163.293 46.448 282.582 189.901 292.273 362.634l0.047 1.046h-32c-9.636-157.535-117.031-287.594-261.876-330.852l-2.604-0.668c-147.619 44.074-255.048 174.496-264.273 331.318l-0.047 1.002v247.36c9.6 0 19.2-0.8 28.96-0.8 0.123 0 0.269 0 0.415 0 85.36 0 166.171 19.477 238.231 54.229l-3.285-1.428c68.864-33.423 149.792-52.96 235.283-52.96 0.083 0 0.166 0 0.25 0h-0.013c9.76 0 19.36 0 28.96 0.8v-248h32v268.48c-0.055 7.204-5.908 13.023-13.12 13.023-0.451 0-0.896-0.023-1.336-0.067l0.055 0.005zM512 609.76c-44.183 0-80-35.817-80-80v0-40.32h-20.48c-10.427 0-18.88-8.453-18.88-18.88v0-160c0-10.427 8.453-18.88 18.88-18.88v0h202.24c10.427 0 18.88 8.453 18.88 18.88v0 160c0 10.427-8.453 18.88-18.88 18.88v0h-21.76v40.8c-0.272 43.976-35.985 79.52-79.999 79.52-0.001 0-0.001 0-0.002 0v0zM464 529.76c3.434 23.437 23.399 41.229 47.52 41.229s44.086-17.792 47.489-40.968l0.031-0.261v-40.32h-93.76zM596.32 457.44c1.767 0 3.2-1.433 3.2-3.2v0-128c0-1.767-1.433-3.2-3.2-3.2v0h-168.48c-1.767 0-3.2 1.433-3.2 3.2v0 128c0 1.767 1.433 3.2 3.2 3.2v0zM496 386.080v-29.28c0-8.837 7.163-16 16-16s16 7.163 16 16v0 29.28c8.232 5.348 13.6 14.499 13.6 24.903 0 16.348-13.252 29.6-29.6 29.6s-29.6-13.252-29.6-29.6c0-10.404 5.368-19.555 13.485-24.833l0.115-0.070z" />
<glyph unicode="&#xe913;" glyph-name="building" d="M820.32 473.44v0c0 0.027 0 0.060 0 0.093 0 4.395-1.772 8.377-4.641 11.269l0.001-0.001-143.040 144c-2.901 2.921-6.919 4.729-11.36 4.729-8.842 0-16.009-7.167-16.009-16.009 0-4.401 1.776-8.387 4.65-11.281l-0.001 0.001 138.4-138.88v-337.6h-144c-8.837 0-16-7.163-16-16s7.163-16 16-16v0h160c8.837 0 16 7.163 16 16v0 0zM581.6 786.72v0.8c-0.469 1.404-1.065 2.621-1.798 3.741l0.038-0.061-1.12 1.6c-1.014 1.169-2.172 2.175-3.457 3.002l-0.063 0.038h-0.96c-1.341 0.724-2.897 1.28-4.541 1.585l-0.099 0.015h-3.36c-0.504 0.056-1.088 0.088-1.68 0.088s-1.176-0.032-1.751-0.095l0.071 0.006h-2.24l-344.64-101.76c-1.892-0.548-3.543-1.369-5.006-2.432l0.046 0.032c-3.128-2.484-5.292-6.064-5.909-10.152l-0.011-0.088c-0.020-0.287-0.031-0.622-0.031-0.96s0.011-0.673 0.033-1.005l-0.002 0.045v-564.8s0-0.96 0-1.44c0-8.837 7.163-16 16-16v0h345.12c8.837 0 16 7.163 16 16v0 667.84c0.023 0.311 0.036 0.674 0.036 1.040s-0.013 0.729-0.039 1.088l0.003-0.048c-0.198 0.761-0.417 1.4-0.677 2.018l0.037-0.098zM236 130.72v537.44l314.24 92.8v-630.88zM471.68 288.8h-157.44c-8.837 0-16-7.163-16-16s7.163-16 16-16v0h157.6c8.837 0 16 7.163 16 16s-7.163 16-16 16v0zM471.68 446.24h-157.44c-8.837 0-16-7.163-16-16s7.163-16 16-16v0h157.6c8.837 0 16 7.163 16 16s-7.163 16-16 16v0zM471.68 603.52h-78.24c-8.837 0-16-7.163-16-16s7.163-16 16-16v0h78.24c8.837 0 16 7.163 16 16s-7.163 16-16 16v0z" />
<glyph unicode="&#xe914;" glyph-name="business-system" d="M355.36 708.48c4.888 2.801 8.127 7.987 8.127 13.929 0 2.877-0.759 5.577-2.089 7.91l0.041-0.079c-2.824 4.791-7.958 7.956-13.831 7.956-2.982 0-5.773-0.816-8.163-2.236l0.074 0.041c-98.629-59.739-163.533-166.469-163.533-288.36 0-1.055 0.005-2.109 0.015-3.162l-0.001 0.161c0.782-62.996 19.023-121.574 50.092-171.315l-0.812 1.395c2.93-4.154 7.709-6.834 13.114-6.834 4.209 0 8.039 1.625 10.896 4.283l-0.010-0.009c2.663 2.85 4.298 6.69 4.298 10.912 0 2.998-0.824 5.803-2.259 8.201l0.040-0.073c-27.293 44.695-43.452 98.772-43.452 156.623 0 110.008 58.432 206.369 145.953 259.738l1.339 0.759zM798.88 311.52v0c-1.53 0.535-3.294 0.845-5.13 0.845-6.165 0-11.516-3.487-14.188-8.597l-0.042-0.088c-52.429-95.82-152.542-159.716-267.578-159.716-58.031 0-112.265 16.26-158.393 44.473l1.332-0.757c-2.347 1.428-5.185 2.273-8.22 2.273-5.089 0-9.624-2.376-12.554-6.080l-0.026-0.033c-1.83-2.567-2.925-5.767-2.925-9.222 0-5.444 2.719-10.253 6.873-13.143l0.052-0.035c44.369-28.102 97.696-46.061 154.95-49.399l0.89-0.041c5.482-0.319 11.895-0.501 18.35-0.501 127.135 0 237.778 70.61 294.852 174.753l0.878 1.748c1.421 2.342 2.262 5.174 2.262 8.201 0 7.189-4.742 13.271-11.268 15.289l-0.113 0.030zM512 784c-6.4 0-12.64 0-18.88 0-8.231-0.763-14.625-7.635-14.625-16 0-8.872 7.192-16.065 16.065-16.065 0.507 0 1.008 0.023 1.503 0.069l-0.063-0.005c5.44 0 11.040 0 16 0 0.074 0 0.162 0 0.25 0 167.895 0 304-136.105 304-304 0-4.333-0.091-8.644-0.27-12.933l0.020 0.613c-0.017-0.273-0.026-0.591-0.026-0.912 0-8.169 6.122-14.908 14.029-15.88l0.077-0.008c0.577-0.074 1.244-0.116 1.92-0.116 8.837 0 16 7.163 16 16 0 0.041 0 0.081 0 0.122v-0.006q0 6.72 0 13.6c-0.273 185.361-150.601 335.52-336 335.52 0 0 0 0-0.001 0v0zM394.080 315.040h237.28c9.367 0 16.96 7.593 16.96 16.96v0 124.16c0 0 0 0 0 0.001 0 9.399-7.574 17.029-16.951 17.119h-124.329c-9.367 0-16.96-7.593-16.96-16.96v0c0-9.367 7.593-16.96 16.96-16.96h107.36v-90.56h-203.52v203.52h220.48c0.493-0.051 1.066-0.080 1.645-0.080 9.367 0 16.96 7.593 16.96 16.96s-7.593 16.96-16.96 16.96c-0.579 0-1.152-0.029-1.717-0.086l0.071 0.006h-237.28c-9.367 0-16.96-7.593-16.96-16.96v0-237.12c0-9.367 7.593-16.96 16.96-16.96v0z" />
<glyph unicode="&#xe915;" glyph-name="content-management" d="M411.040 128h-135.36c-31.863 0.091-57.669 25.897-57.76 57.751v555.689c0 14.669 11.891 26.56 26.56 26.56v0h459.52c31.863-0.091 57.669-25.897 57.76-57.751v-182.249c0-8.837 7.163-16 16-16s16 7.163 16 16v0 208c0 35.346-28.654 64-64 64v0h-486.24c-31.775-0.091-57.509-25.825-57.6-57.591v-582.409c0-35.346 28.654-64 64-64v0h161.12c8.837 0 16 7.163 16 16s-7.163 16-16 16v0zM312 624c-8.837 0-16-7.163-16-16s7.163-16 16-16v0h352c8.837 0 16 7.163 16 16s-7.163 16-16 16v0zM412.8 499.2h-100.8c-8.837 0-16-7.163-16-16s7.163-16 16-16v0h100.8c8.837 0 16 7.163 16 16s-7.163 16-16 16v0zM369.6 342.4c8.837 0 16 7.163 16 16s-7.163 16-16 16v0h-57.6c-8.837 0-16-7.163-16-16s7.163-16 16-16v0zM637.12 371.84c-0.143 0.001-0.311 0.002-0.48 0.002-40.206 0-72.8-32.594-72.8-72.8s32.594-72.8 72.8-72.8c40.206 0 72.799 32.593 72.8 72.798v0c0 0.001 0 0.001 0 0.002 0 40.038-32.321 72.526-72.294 72.798h-0.026zM640 253.76c-0.943-0.070-2.042-0.111-3.151-0.111-24.831 0-44.96 20.129-44.96 44.96 0 1.109 0.040 2.208 0.119 3.296l-0.008-0.146c1.732 22.686 19.714 40.668 42.244 42.39l0.156 0.010c0.943 0.070 2.042 0.111 3.151 0.111 24.831 0 44.96-20.129 44.96-44.96 0-1.109-0.040-2.208-0.119-3.296l0.008 0.146c-1.732-22.686-19.714-40.668-42.244-42.39l-0.156-0.010zM810.88 346.4h-28.96s-3.68 1.76-3.68 3.68l-5.44 14.56v3.36l19.84 20c4.482 4.722 7.238 11.119 7.238 18.16s-2.756 13.438-7.249 18.172l0.011-0.012-30.72 30.88c-4.63 4.62-11.022 7.476-18.080 7.476s-13.45-2.857-18.080-7.477v0l-19.84-20s-1.76-1.76-5.44 0l-14.56 5.44c-0.941 0.969-1.579 2.237-1.757 3.648l-0.003 0.032v29.28c0 14.138-11.462 25.6-25.6 25.6v0h-42.88c-14.138 0-25.6-11.462-25.6-25.6v0-28.96s-1.76-3.68-3.68-3.68l-14.4-5.44h-3.68l-19.84 20c-4.681 4.508-11.056 7.284-18.080 7.284s-13.399-2.777-18.088-7.292l0.008 0.008-30.72-30.88c-4.482-4.722-7.238-11.119-7.238-18.16s2.756-13.438 7.249-18.172l-0.011 0.012 19.84-20.32s1.76-3.68 0-5.44l-5.44-12.8c-0.963-0.951-2.234-1.591-3.651-1.757l-0.029-0.003h-28.32c-14.126-1.188-25.157-12.886-25.28-27.188v-45.452c0.090-13.925 11.355-25.19 25.271-25.28h28.809s3.68-1.76 3.68-3.68l5.44-14.56v-3.68l-20.48-20.16c-4.482-4.722-7.238-11.119-7.238-18.16s2.756-13.438 7.249-18.172l-0.011 0.012 30.56-30.72c4.63-4.62 11.022-7.476 18.080-7.476s13.45 2.857 18.080 7.477v0l19.84 20s1.76 1.76 5.44 0l14.4-5.44c0.941-0.969 1.579-2.237 1.757-3.648l0.003-0.032v-29.12c0.437-13.177 11.224-23.693 24.467-23.693 0.286 0 0.57 0.005 0.854 0.015l-0.041-0.001h45.28c13.962 0 25.28 11.318 25.28 25.28v0 29.44s1.76 3.68 3.68 3.68l14.4 5.44h3.68l19.84-20c4.63-4.62 11.022-7.476 18.080-7.476s13.45 2.857 18.080 7.477v0l30.72 30.88c4.482 4.722 7.238 11.119 7.238 18.16s-2.756 13.438-7.249 18.172l0.011-0.012-19.84 20s-1.76 3.68 0 5.44l5.44 14.56c0.963 0.951 2.234 1.591 3.651 1.757l0.029 0.003h28.64c14.138 0 25.6 11.462 25.6 25.6v0 43.52c-1.084 13.979-12.467 24.974-26.515 25.439l-0.045 0.001zM809.12 279.2h-27.2c-13.068-0.298-24.174-8.385-28.882-19.787l-0.078-0.213-5.44-12.8c-1.927-3.903-3.054-8.496-3.054-13.353 0-8.23 3.236-15.703 8.505-21.218l-0.011 0.012 20-19.84-28.96-29.28-19.84 20c-5.497 5.227-12.949 8.443-21.153 8.443-4.816 0-9.372-1.108-13.429-3.083l0.182 0.080-12.64-5.44c-11.659-4.095-19.868-15.009-19.868-27.84 0-0.45 0.010-0.898 0.030-1.343l-0.002 0.063v-27.2h-40v27.2c-0.203 13.097-8.244 24.266-19.629 29.042l-0.211 0.078-12.64 5.44c-3.903 1.998-8.515 3.168-13.4 3.168-8.185 0-15.602-3.286-21.004-8.612l0.004 0.003-19.84-20-29.12 29.28 19.84 20c4.767 5.429 7.675 12.592 7.675 20.434 0 4.167-0.821 8.142-2.31 11.772l0.075-0.207-5.44 12.8c-4.051 11.738-15.004 20.019-27.892 20.019-0.376 0-0.75-0.007-1.122-0.021l0.054 0.002h-27.2v42.4h27.2c13.068 0.298 24.174 8.385 28.882 19.787l0.078 0.213 5.44 12.8c1.603 3.591 2.537 7.783 2.537 12.192 0 8.823-3.739 16.773-9.719 22.351l-0.018 0.017-18.080 19.84 28.96 29.12 19.84-19.52c5.887-4.407 13.312-7.057 21.355-7.057 3.8 0 7.462 0.591 10.898 1.687l-0.254-0.070 12.64 5.44c12.559 4.021 21.533 15.493 21.76 29.094v27.226h41.6v-27.2c0.315-13.236 8.62-24.456 20.263-29.045l0.217-0.075 12.64-5.44c3.93-2.031 8.579-3.222 13.506-3.222 8.211 0 15.65 3.308 21.057 8.664l-0.002-0.002 19.84 20 28.96-29.12-19.84-20c-5.761-5.231-9.364-12.75-9.364-21.111 0-3.928 0.795-7.671 2.234-11.076l-0.070 0.187 5.44-12.8c4.051-11.738 15.004-20.019 27.892-20.019 0.376 0 0.75 0.007 1.122 0.021l-0.054-0.002h27.2z" />
<glyph unicode="&#xe916;" glyph-name="curve-graph" d="M840 196.64h-656c-8.837 0-16-7.163-16-16s7.163-16 16-16v0h656c8.837 0 16 7.163 16 16s-7.163 16-16 16v0zM836 730.72c-1.825 0.37-3.923 0.581-6.071 0.581-17.673 0-32-14.327-32-32 0-6.128 1.723-11.855 4.71-16.72l-0.079 0.139-162.56-292.16c-2.681-0.023-5.269-0.372-7.742-1.009l0.222 0.049-188.8 190.72c0.85 2.743 1.34 5.896 1.34 9.164 0 17.673-14.327 32-32 32s-32-14.327-32-32c0-4.894 1.099-9.531 3.063-13.679l-0.083 0.194-186.88-261.44c-0.907 0.091-1.961 0.143-3.027 0.143-17.673 0-32-14.327-32-32s14.327-32 32-32c17.673 0 32 14.327 32 32 0 4.821-1.066 9.393-2.976 13.494l0.082-0.197 186.72 260.96c1.007-0.112 2.174-0.176 3.355-0.176 2.786 0 5.49 0.356 8.067 1.025l-0.222-0.049 189.12-190.72c-0.767-2.611-1.209-5.61-1.209-8.713 0-17.673 14.327-32 32-32s32 14.327 32 32c0 6.183-1.753 11.956-4.79 16.849l0.079-0.136 162.080 292.32c0.839-0.078 1.814-0.122 2.8-0.122 17.741 0 32.122 14.382 32.122 32.122 0 16.755-12.828 30.514-29.198 31.991l-0.124 0.009z" />
<glyph unicode="&#xe917;" glyph-name="custom-fields" d="M342.56 234.56h336c9.72 0 17.6 7.88 17.6 17.6s-7.88 17.6-17.6 17.6v0h-336c-9.72 0-17.6-7.88-17.6-17.6s7.88-17.6 17.6-17.6v0zM677.76 389.12h-224c-9.72 0-17.6-7.88-17.6-17.6s7.88-17.6 17.6-17.6v0h224c9.72 0 17.6 7.88 17.6 17.6s-7.88 17.6-17.6 17.6v0zM588.48 473.28h89.28c9.72 0 17.6 7.88 17.6 17.6s-7.88 17.6-17.6 17.6h-89.28c-9.72 0-17.6-7.88-17.6-17.6s7.88-17.6 17.6-17.6v0zM830.080 508.64c-8.837 0-16-7.163-16-16v0-320c0-17.673-14.327-32-32-32v0h-544c-17.673 0-32 14.327-32 32v0 544c0 17.673 14.327 32 32 32v0h314.24c8.837 0 16 7.163 16 16s-7.163 16-16 16v0h-314.24c-35.346 0-64-28.654-64-64v0-544c0-35.346 28.654-64 64-64v0h544c35.346 0 64 28.654 64 64v0 320c0 8.837-7.163 16-16 16v0zM627.52 648.96h84.8v-84.8c0-9.72 7.88-17.6 17.6-17.6s17.6 7.88 17.6 17.6v0 84.8h84.48c9.72 0 17.6 7.88 17.6 17.6s-7.88 17.6-17.6 17.6h-84.8v84.8c0 9.72-7.88 17.6-17.6 17.6s-17.6-7.88-17.6-17.6v0-84.8h-84.8c-9.72 0-17.6-7.88-17.6-17.6s7.88-17.6 17.6-17.6v0zM361.28 413.44c8.837 0 16 7.163 16 16v0 160h64c8.837 0 16 7.163 16 16s-7.163 16-16 16v0h-160c-8.837 0-16-7.163-16-16s7.163-16 16-16v0h64v-160c0-8.837 7.163-16 16-16v0z" />
<glyph unicode="&#xe918;" glyph-name="cut" d="M688 448c0-8.837-7.163-16-16-16h-320c-8.837 0-16 7.163-16 16s7.163 16 16 16h320c8.837 0 16-7.163 16-16zM816 784h-64c-4.418 0-8-3.582-8-8s3.582-8 8-8v0h66.24l2.080-0.96c6.677-1.915 11.511-7.89 11.68-15.021v-22.739c0-4.418 3.582-8 8-8s8 3.582 8 8v0 22.72h-2.88v0.96c-1.42 2.622-3.067 4.882-4.974 6.895l0.014-0.015-0.96 0.96h-14.72c4.773 1.781 8.111 6.301 8.111 11.6 0 6.821-5.53 12.351-12.351 12.351-1.522 0-2.979-0.275-4.325-0.779l0.085 0.028zM656 784h-64c-4.418 0-8-3.582-8-8s3.582-8 8-8v0h64c4.418 0 8 3.582 8 8s-3.582 8-8 8v0zM496 784h-64c-4.418 0-8-3.582-8-8s3.582-8 8-8v0h64c4.418 0 8 3.582 8 8s-3.582 8-8 8v0zM336 784h-64c-4.418 0-8-3.582-8-8s3.582-8 8-8v0h64c4.418 0 8 3.582 8 8s-3.582 8-8 8v0zM187.84 772.96c-2.809-0.005-5.277-1.456-6.701-3.649l-0.019-0.031c-1.128-1.7-2.149-3.65-2.964-5.704l-0.076-0.216h-1.28v-45.76c0-4.418 3.582-8 8-8s8 3.582 8 8v0 34.4c0.009 3.212 0.962 6.2 2.598 8.701l-0.038-0.061c0.794 1.221 1.267 2.716 1.267 4.32 0 4.414-3.574 7.992-7.986 8h-0.001zM184 618.24c-4.418 0-8-3.582-8-8v0-64c0-4.418 3.582-8 8-8s8 3.582 8 8v0 64c0 4.418-3.582 8-8 8v0zM184 458.24c-4.418 0-8-3.582-8-8v0-64c0-4.418 3.582-8 8-8s8 3.582 8 8v0 64c0 4.418-3.582 8-8 8v0zM184 298.24c-4.418 0-8-3.582-8-8v0-64c0-4.418 3.582-8 8-8s8 3.582 8 8v0 64c0 4.418-3.582 8-8 8v0zM186.24 142.080c-4.392-0.034-7.94-3.603-7.94-8 0-1.219 0.273-2.375 0.761-3.409l-0.021 0.049c4.238-9.618 12.802-16.65 23.157-18.687l0.203-0.033h33.12c4.418 0 8 3.582 8 8s-3.582 8-8 8v0h-27.52c-6.447 0.014-11.997 3.838-14.519 9.34l-0.041 0.1c-1.292 2.744-4.025 4.615-7.197 4.64h-0.003zM395.52 128h-64c-4.418 0-8-3.582-8-8s3.582-8 8-8v0h64c4.418 0 8 3.582 8 8s-3.582 8-8 8v0zM555.52 128h-64c-4.418 0-8-3.582-8-8s3.582-8 8-8v0h64c4.418 0 8 3.582 8 8s-3.582 8-8 8v0zM715.52 128h-64c-4.418 0-8-3.582-8-8s3.582-8 8-8v0h64c4.418 0 8 3.582 8 8s-3.582 8-8 8v0zM840 161.28c-4.418 0-8-3.582-8-8v0-9.28c0-8.837-7.163-16-16-16v0h-4.48c-4.418 0-8-3.582-8-8s3.582-8 8-8v0h4.48c17.673 0 32 14.327 32 32v0 9.28c0 4.418-3.582 8-8 8v0zM840 321.28c-4.418 0-8-3.582-8-8v0-64c0-4.418 3.582-8 8-8s8 3.582 8 8v0 64c0 4.418-3.582 8-8 8v0zM840 481.28c-4.418 0-8-3.582-8-8v0-64c0-4.418 3.582-8 8-8s8 3.582 8 8v0 64c0 4.418-3.582 8-8 8v0zM840 641.28c-4.418 0-8-3.582-8-8v0-64c0-4.418 3.582-8 8-8s8 3.582 8 8v0 64c0 4.418-3.582 8-8 8v0z" />
<glyph unicode="&#xe919;" glyph-name="data-analysis" d="M833.92 161.28h-643.84c-8.837 0-16-7.163-16-16s7.163-16 16-16v0h643.84c8.837 0 16 7.163 16 16s-7.163 16-16 16v0zM252.8 254.56v105.6c0 10.604-8.596 19.2-19.2 19.2s-19.2-8.596-19.2-19.2v0-105.6c0-10.604 8.596-19.2 19.2-19.2s19.2 8.596 19.2 19.2v0zM391.2 254.56v153.6c0 10.604-8.596 19.2-19.2 19.2s-19.2-8.596-19.2-19.2v-153.6c0-10.604 8.596-19.2 19.2-19.2s19.2 8.596 19.2 19.2v0zM529.6 254.56v201.6c0 10.604-8.596 19.2-19.2 19.2s-19.2-8.596-19.2-19.2v-201.6c0-10.604 8.596-19.2 19.2-19.2s19.2 8.596 19.2 19.2v0zM668 254.56v185.6c0 10.604-8.596 19.2-19.2 19.2s-19.2-8.596-19.2-19.2v0-185.6c0-10.604 8.596-19.2 19.2-19.2s19.2 8.596 19.2 19.2v0zM806.4 254.56v297.6c0 10.604-8.596 19.2-19.2 19.2s-19.2-8.596-19.2-19.2v0-297.6c0-10.604 8.596-19.2 19.2-19.2s19.2 8.596 19.2 19.2v0zM855.84 759.36c-2.942 4.023-7.646 6.607-12.953 6.607-3.553 0-6.836-1.158-9.491-3.118l0.044 0.031-251.52-181.92-131.68 75.040c-2.546 1.786-5.708 2.854-9.12 2.854s-6.574-1.068-9.171-2.888l0.051 0.034-260.32-187.52c-4.023-2.942-6.607-7.646-6.607-12.953 0-3.553 1.158-6.836 3.118-9.491l-0.031 0.044c2.942-4.023 7.646-6.607 12.953-6.607 3.553 0 6.836 1.158 9.491 3.118l-0.044-0.031 251.36 181.44 132.16-76c1.87-1.218 4.090-2.068 6.477-2.391l0.083-0.009c0.883-0.034 1.919-0.053 2.96-0.053s2.077 0.019 3.109 0.058l-0.149-0.004c2.466 0.611 4.614 1.72 6.427 3.221l-0.027-0.021 259.2 187.52c4.265 2.918 7.027 7.76 7.027 13.247 0 3.705-1.26 7.116-3.374 9.829l0.027-0.036z" />
<glyph unicode="&#xe91a;" glyph-name="edit" d="M830.88 187.2h-350.88c-9.72 0-17.6-7.88-17.6-17.6s7.88-17.6 17.6-17.6v0h352c9.72 0 17.6 7.88 17.6 17.6s-7.88 17.6-17.6 17.6v0zM830.88 320h-240.8c-9.72 0-17.6-7.88-17.6-17.6s7.88-17.6 17.6-17.6v0h240.8c9.72 0 17.6 7.88 17.6 17.6s-7.88 17.6-17.6 17.6v0zM708 434.56c0-9.72 7.88-17.6 17.6-17.6h105.28c9.72 0 17.6 7.88 17.6 17.6s-7.88 17.6-17.6 17.6h-105.28c-9.72 0-17.6-7.88-17.6-17.6v0zM740.48 653.12l-72.16 72.16c-11.584 11.597-27.594 18.77-45.28 18.77s-33.696-7.174-45.279-18.77l-351.041-351.041-50.72-191.040c-0.414-1.443-0.652-3.1-0.652-4.812 0-9.985 8.095-18.080 18.080-18.080 1.713 0 3.37 0.238 4.94 0.683l-0.127-0.031 191.040 50.56 351.2 351.040c11.597 11.584 18.77 27.594 18.77 45.28s-7.174 33.696-18.77 45.279l-0.001 0.001zM209.12 192.96c-0.053-0.010-0.114-0.016-0.176-0.016-0.53 0-0.96 0.43-0.96 0.96 0 0.062 0.006 0.123 0.017 0.182l-0.001-0.006 41.44 157.92 116.64-116.64zM389.28 256.96l-117.28 117.28 240 240 117.44-117.44zM717.76 585.28l-65.44-65.44-117.44 117.44 65.44 65.44c5.792 5.798 13.797 9.385 22.64 9.385s16.848-3.587 22.64-9.385v0l72.16-72.16c5.798-5.792 9.385-13.797 9.385-22.64s-3.587-16.848-9.385-22.64v0z" />
<glyph unicode="&#xe91b;" glyph-name="export" d="M832 382.080c-8.837 0-16-7.163-16-16v0-208h-608v208c0 8.837-7.163 16-16 16s-16-7.163-16-16v0-224c0-8.837 7.163-16 16-16v0h640c8.837 0 16 7.163 16 16v0 224c0 8.837-7.163 16-16 16v0zM347.040 561.76l153.76 153.76v-409.44c0-8.837 7.163-16 16-16s16 7.163 16 16v0 409.28l153.76-153.76c2.952-3.432 7.3-5.593 12.153-5.593 8.837 0 16 7.163 16 16 0 4.853-2.16 9.201-5.572 12.135l-0.021 0.018-181.12 181.12c-0.931 0.782-1.981 1.475-3.108 2.038l-0.092 0.042c-0.599 0.44-1.28 0.865-1.992 1.238l-0.088 0.042c-1.819 0.78-3.937 1.233-6.16 1.233s-4.341-0.453-6.265-1.273l0.105 0.040c-0.8-0.415-1.481-0.84-2.125-1.311l0.045 0.031c-1.155-0.615-2.152-1.305-3.059-2.096l0.019 0.016-180.8-180.96c-3.432-2.952-5.593-7.3-5.593-12.153 0-8.837 7.163-16 16-16 4.853 0 9.201 2.16 12.135 5.572l0.018 0.021z" />
<glyph unicode="&#xe91c;" glyph-name="form" d="M819.84 753.92h-615.68c-19.617 0-35.52-15.903-35.52-35.52v0-540.8c0-19.617 15.903-35.52 35.52-35.52h615.68c19.617 0 35.52 15.903 35.52 35.52v0 540.8c0 19.617-15.903 35.52-35.52 35.52v0zM824.8 701.28v0h-186.72zM418.56 349.28v144h187.52v-144zM606.080 317.28v-144h-187.52v144zM606.080 669.28v-144h-187.52v144zM418.56 701.28v0h187.52zM386.56 525.28h-187.36v144h187.36zM386.56 493.28v-144h-187.36v144zM638.080 493.28h186.72v-144h-186.72zM638.080 525.28v144h186.72v-144zM386.56 701.28v0h-187.36zM199.2 173.28v144h187.36v-144zM638.080 173.28v144h186.72v-144z" />
<glyph unicode="&#xe91d;" glyph-name="full-screen" d="M208 752h243.2v32h-275.2v-275.2h32v243.2zM816 784h-217.6v-32h195.040l-223.68-223.68 22.56-22.56 223.68 223.68v-195.040h32v249.6h-32zM816 144h-243.2v-32h275.2v275.2h-32v-243.2zM431.68 390.24l-223.68-223.68v195.040h-32v-249.6h249.6v32h-195.040l223.68 223.68-22.56 22.56z" />
<glyph unicode="&#xe91e;" glyph-name="gelete" d="M510.24 184.32c0.297-0.021 0.643-0.033 0.993-0.033 8.306 0 15.040 6.734 15.040 15.040 0 0.349-0.012 0.696-0.035 1.039l0.003-0.046v400c0.021 0.297 0.033 0.643 0.033 0.993 0 8.306-6.734 15.040-15.040 15.040-0.349 0-0.696-0.012-1.039-0.035l0.046 0.003c-8.837 0-16-7.163-16-16v0-400c-0.021-0.297-0.033-0.643-0.033-0.993 0-8.306 6.734-15.040 15.040-15.040 0.349 0 0.696 0.012 1.039 0.035l-0.046-0.003zM382.080 184.32c0.297-0.021 0.643-0.033 0.993-0.033 8.306 0 15.040 6.734 15.040 15.040 0 0.349-0.012 0.696-0.035 1.039l0.003-0.046v400c0.021 0.297 0.033 0.643 0.033 0.993 0 8.306-6.734 15.040-15.040 15.040-0.349 0-0.696-0.012-1.039-0.035l0.046 0.003c-8.837 0-16-7.163-16-16v0-400c-0.021-0.297-0.033-0.643-0.033-0.993 0-8.306 6.734-15.040 15.040-15.040 0.349 0 0.696 0.012 1.039 0.035l-0.046-0.003zM638.4 184.32c0.297-0.021 0.643-0.033 0.993-0.033 8.306 0 15.040 6.734 15.040 15.040 0 0.349-0.012 0.696-0.035 1.039l0.003-0.046v400c0.021 0.297 0.033 0.643 0.033 0.993 0 8.306-6.734 15.040-15.040 15.040-0.349 0-0.696-0.012-1.039-0.035l0.046 0.003c-8.837 0-16-7.163-16-16v0-400c-0.021-0.297-0.033-0.643-0.033-0.993 0-8.306 6.734-15.040 15.040-15.040 0.349 0 0.696 0.012 1.039 0.035l-0.046-0.003zM832 698.24h-192.96v74.88c0 8.837-7.163 16-16 16v0h-222.080c-8.837 0-16-7.163-16-16v0-74.88h-192.96c-8.837 0-16-7.163-16-16s7.163-16 16-16v0h64.8v-504.96c0.091-30.008 24.392-54.309 54.391-54.4h401.289c30.008 0.091 54.309 24.392 54.4 54.391v504.969h65.12c8.837 0 16 7.163 16 16s-7.163 16-16 16v0zM416.96 757.12h190.080v-58.88h-190.080zM734.88 161.28c-0.178-12.299-10.101-22.222-22.383-22.4h-401.297c-12.299 0.178-22.222 10.101-22.4 22.383v504.977h446.080z" />
<glyph unicode="&#xe91f;" glyph-name="genee-line" d="M786.4 464h117.6v-405.6h-117.6v405.6zM461.12 493.12h442.72v-117.6h-442.72v117.6zM903.84 708.8v117.6h-768v-784h768v117.44h-650.4v548.96h650.4z" />
<glyph unicode="&#xe920;" glyph-name="genee-spot" d="M623.68 826.4h117.6v-117.6h-117.6v117.6zM135.84 826.4h117.6v-117.6h-117.6v117.6zM298.56 826.4h117.6v-117.6h-117.6v117.6zM461.12 826.4h117.6v-117.6h-117.6v117.6zM786.4 826.4h117.6v-117.6h-117.6v117.6zM135.84 659.84h117.6v-117.6h-117.6v117.6zM623.68 493.12h117.6v-117.6h-117.6v117.6zM461.12 493.12h117.6v-117.6h-117.6v117.6zM135.84 493.12h117.6v-117.6h-117.6v117.6zM786.4 493.12h117.6v-117.6h-117.6v117.6zM135.84 326.56h117.6v-117.6h-117.6v117.6zM786.4 326.56h117.6v-117.6h-117.6v117.6zM623.68 159.84h117.6v-117.6h-117.6v117.6zM135.84 159.84h117.6v-117.6h-117.6v117.6zM298.56 159.84h117.6v-117.6h-117.6v117.6zM461.12 159.84h117.6v-117.6h-117.6v117.6zM786.4 159.84h117.6v-117.6h-117.6v117.6z" />
<glyph unicode="&#xe921;" glyph-name="geographic-Information" d="M640 128h-80c81.92 85.6 240 265.6 240 384 0 159.058-128.942 288-288 288s-288-128.942-288-288v0c0-117.76 157.6-297.6 240-384h-80c-8.837 0-16-7.163-16-16s7.163-16 16-16v0h256c8.837 0 16 7.163 16 16s-7.163 16-16 16v0zM256 512c0 141.385 114.615 256 256 256s256-114.615 256-256v0c0-137.12-240-369.28-256-384v0c-16 14.24-256 246.56-256 384zM640 510.24c0 70.692-57.308 128-128 128s-128-57.308-128-128c0-70.692 57.308-128 128-128v0c70.692 0 128 57.308 128 128v0zM416 510.24c0 53.019 42.981 96 96 96s96-42.981 96-96c0-53.019-42.981-96-96-96v0c-53.019 0-96 42.981-96 96v0z" />
<glyph unicode="&#xe922;" glyph-name="giot" d="M503.68 276.48v59.52c-7.36 1.92-14.56 4.16-21.44 6.72s-14.080 5.44-20.48 8.48c-8.137 3.872-14.847 7.602-21.309 11.69l0.829-0.49c-7.293 4.486-13.505 8.865-19.435 13.583l0.395-0.303c-5.762 4.874-10.98 9.788-15.927 14.963l-0.073 0.077c-5.185 5.004-10.048 10.221-14.625 15.687l-0.255 0.313c-4.286 5.297-8.604 11.244-12.614 17.41l-0.506 0.83c-4.16 6.4-8 13.12-11.52 20s-6.88 13.76-10.080 21.44-6.080 15.2-8.64 22.88-5.12 16-7.2 24.16-4.16 16-5.92 25.28-3.36 17.28-4.8 26.080-3.040 21.12-4.16 32c-1.6 14.4-2.72 29.12-3.52 45.28s-2.4 29.92-2.4 43.36c6.72 5.92 13.6 11.68 20.48 16.96 9.134 6.943 19.576 14.019 30.391 20.54l1.609 0.9c6.080 3.68 12.32 7.2 18.72 10.56 10.080 5.28 20.64 10.24 32 14.56 10.284 4.46 23.46 9.198 36.945 13.22l2.735 0.7c13.44 3.84 27.52 7.2 41.92 9.92v59.2h-0.96c-94.373-14.37-176.797-57.44-240.046-119.885l0.046 0.045-1.6-1.6v-2.24c0-176 27.36-384 240.96-432zM651.68 467.52c-3.040-7.36-6.4-14.56-10.080-21.44s-7.52-13.6-11.52-20c-4.526-7.001-8.845-12.948-13.446-18.658l0.326 0.418c-9.543-11.954-20.046-22.457-31.604-31.694l-0.396-0.306c-5.529-4.403-11.741-8.781-18.202-12.795l-0.838-0.485c-5.624-3.588-12.334-7.318-19.262-10.669l-1.218-0.531c-6.4-3.040-13.28-5.92-20.48-8.48s-13.44-4.64-21.44-6.72v-60.16h1.12c135.52 30.080 212.16 128 233.92 300.48v6.24h-234.88v-58.4h166.4c-2.88-12.16-6.24-23.84-9.92-34.56-2.4-7.2-5.44-14.88-8.48-22.24zM545.6 762.72c16.291-4.723 29.522-9.462 42.4-14.875l-2.56 0.955c10.72-4.32 21.12-9.28 32-14.56 6.4-3.36 12.64-6.88 18.72-10.56 12.432-7.433 22.874-14.509 32.907-22.097l-0.907 0.657c6.88-5.28 13.76-11.040 20.48-16.96q0-21.28-1.44-42.56c0-9.92-1.28-18.4-2.080-27.36h57.28c2.24 27.84 3.52 57.92 3.52 92.48v2.56l-1.6 1.6c-63.079 62.633-145.558 105.803-237.632 119.706l-2.368 0.294v-59.2c16.775-3.207 30.653-6.696 44.236-10.859l-2.956 0.779zM302.72 122.56h29.6v-26.56c-5.689-2.336-12.293-3.692-19.213-3.692-0.389 0-0.777 0.004-1.165 0.013l0.058-0.001c-0.845-0.063-1.831-0.099-2.825-0.099-11.455 0-21.799 4.758-29.163 12.406l-0.012 0.013c-7.328 8.734-11.78 20.097-11.78 32.499 0 1.119 0.036 2.23 0.108 3.331l-0.008-0.15c-0.046 0.796-0.072 1.728-0.072 2.665 0 12.853 4.888 24.563 12.908 33.375l-0.036-0.040c7.697 8.195 18.602 13.3 30.699 13.3 0.457 0 0.913-0.007 1.367-0.022l-0.066 0.002c0.556 0.017 1.21 0.026 1.867 0.026 12.48 0 24.152-3.46 34.109-9.472l-0.296 0.166 9.44-5.92v33.6l-3.68 1.6c-11.116 4.872-24.072 7.708-37.689 7.708-0.812 0-1.623-0.010-2.43-0.030l0.12 0.002c-0.692 0.023-1.506 0.036-2.323 0.036-20.869 0-39.748-8.519-53.35-22.269l-0.007-0.007c-13.486-13.919-21.799-32.919-21.799-53.861 0-0.865 0.014-1.726 0.042-2.584l-0.003 0.125c-0.050-1.021-0.078-2.217-0.078-3.42 0-19.696 7.572-37.623 19.964-51.030l-0.046 0.050c12.599-12.62 30.016-20.427 49.257-20.427 1.359 0 2.709 0.039 4.049 0.116l-0.185-0.008c0.399-0.006 0.871-0.009 1.344-0.009 17.607 0 34.132 4.632 48.423 12.743l-0.487-0.254 3.2 1.76v72.32h-59.84zM392.8 139.36h64.32v-25.76h-64.32v25.76zM477.12 187.84h13.12v-94.24h-13.12v-27.36h56.16v27.36h-13.12v94.24h13.12v27.36h-56.16v-27.36zM616.64 178.4c-0.69 0.031-1.499 0.049-2.312 0.049-15.1 0-28.768-6.135-38.647-16.047l-0.002-0.002c-9.931-10.494-16.037-24.697-16.037-40.326 0-0.729 0.013-1.456 0.040-2.179l-0.003 0.105c-0.008-0.358-0.013-0.781-0.013-1.204 0-15.026 5.851-28.686 15.4-38.824l-0.027 0.029c9.482-9.887 22.8-16.031 37.553-16.031 0.635 0 1.268 0.011 1.898 0.034l-0.091-0.003c0.672-0.031 1.459-0.048 2.251-0.048 14.868 0 28.301 6.145 37.897 16.035l0.013 0.013c9.556 11.402 15.361 26.23 15.361 42.415 0 15.377-5.239 29.53-14.030 40.771l0.11-0.146c-9.233 9.529-22.147 15.444-36.443 15.444-1.026 0-2.045-0.030-3.056-0.091l0.139 0.007zM632.64 98.4c-3.948-4.465-9.69-7.265-16.086-7.265-0.589 0-1.173 0.024-1.75 0.070l0.076-0.005c-0.394-0.024-0.855-0.038-1.319-0.038-6.712 0-12.743 2.91-16.903 7.537l-0.018 0.021c-4.423 5.579-7.095 12.72-7.095 20.485 0 0.674 0.020 1.342 0.060 2.006l-0.004-0.091c-0.008 0.273-0.012 0.595-0.012 0.918 0 8.339 2.899 16 7.745 22.031l-0.053-0.069c4.129 4.74 10.176 7.719 16.918 7.719 0.465 0 0.927-0.014 1.385-0.042l-0.063 0.003c0.501 0.042 1.085 0.065 1.674 0.065 6.396 0 12.138-2.801 16.066-7.243l0.020-0.023c4.061-5.815 6.488-13.033 6.488-20.817 0-0.895-0.032-1.782-0.095-2.661l0.007 0.118c0.054-0.744 0.085-1.612 0.085-2.487 0-7.75-2.427-14.932-6.563-20.829l0.077 0.116zM677.12 215.2v-28h39.2v-120.96h30.24v120.96h39.36v28h-108.8z" />
<glyph unicode="&#xe923;" glyph-name="group-management" d="M381.12 476.32h108.8c9.72 0 17.6 7.88 17.6 17.6s-7.88 17.6-17.6 17.6h-108.8c-9.72 0-17.6-7.88-17.6-17.6s7.88-17.6 17.6-17.6v0zM381.12 369.76h300.8c9.72 0 17.6 7.88 17.6 17.6s-7.88 17.6-17.6 17.6v0h-300.8c-9.72 0-17.6-7.88-17.6-17.6s7.88-17.6 17.6-17.6v0zM651.040 150.88h-401.92c-17.673 0-32 14.327-32 32v0 404.96c0 8.837-7.163 16-16 16s-16-7.163-16-16v0-404.96c0-35.346 28.654-64 64-64v0h401.92c8.837 0 16 7.163 16 16s-7.163 16-16 16v0zM694.24 685.44c-0.048 0-0.104 0-0.16 0-28.896 0-52.32-23.424-52.32-52.32s23.424-52.32 52.32-52.32c28.895 0 52.32 23.424 52.32 52.32v0c0 0 0 0 0 0 0 28.839-23.333 52.229-52.151 52.32h-0.009zM696.32 600.48c-0.804-0.072-1.74-0.113-2.686-0.113-17.673 0-32 14.327-32 32 0 0.997 0.046 1.984 0.135 2.958l-0.009-0.125c1.19 16.377 14.183 29.37 30.453 30.554l0.107 0.006c0.804 0.072 1.74 0.113 2.686 0.113 17.673 0 32-14.327 32-32 0-0.997-0.046-1.984-0.135-2.958l0.009 0.125c-1.121-16.496-14.224-29.599-30.619-30.714l-0.101-0.006zM819.36 667.040h-20.96s-2.56 1.28-2.56 2.56l-3.84 10.4v2.56l14.4 14.4c3.245 3.408 5.242 8.031 5.242 13.12s-1.997 9.712-5.249 13.128l0.007-0.008-22.4 22.4c-3.333 3.347-7.944 5.419-13.040 5.419s-9.707-2.071-13.039-5.418l-14.401-14.401s-1.28-1.28-3.84 0l-10.4 4c-0.664 0.675-1.124 1.554-1.277 2.534l-0.003 0.026v20.8c0 10.162-8.238 18.4-18.4 18.4h-30.88c-10.162 0-18.4-8.238-18.4-18.4v0-20.8s-1.28-2.56-2.56-2.56l-10.4-4h-2.56l-14.4 14.4c-3.383 3.235-7.979 5.227-13.040 5.227s-9.657-1.991-13.047-5.233l0.007 0.007-22.080-22.24c-3.245-3.408-5.242-8.031-5.242-13.12s1.997-9.712 5.249-13.128l-0.007 0.008 14.4-14.4s1.28-2.56 0-4l-3.84-9.12c-0.669-0.674-1.551-1.136-2.536-1.277l-0.024-0.003h-20.8c-10.214-0.851-18.189-9.326-18.24-19.675v-32.005c0-10.162 8.238-18.4 18.4-18.4v0h20.8s2.56-1.28 2.56-2.56l3.84-10.4v-2.56l-14.4-14.4c-3.245-3.408-5.242-8.031-5.242-13.12s1.997-9.712 5.249-13.128l-0.007 0.008 22.080-22.24c3.333-3.347 7.944-5.419 13.040-5.419s9.707 2.071 13.039 5.418l14.401 14.401s1.28 1.28 3.84 0l10.4-4c0.664-0.675 1.124-1.554 1.277-2.534l0.003-0.026v-20.96c0.348-9.446 8.089-16.972 17.589-16.972 0.229 0 0.457 0.004 0.684 0.013l-0.033-0.001h32c10.074 0 18.24 8.166 18.24 18.24v0 20s1.28 2.56 2.56 2.56l10.4 4h2.56l14.4-14.4c3.333-3.347 7.944-5.419 13.040-5.419s9.707 2.071 13.039 5.418l0.001 0.001 22.080 22.24c3.245 3.408 5.242 8.031 5.242 13.12s-1.997 9.712-5.249 13.128l0.007-0.008-14.4 14.4s-1.28 2.56 0 4l3.84 10.4c0.669 0.674 1.551 1.136 2.536 1.277l0.024 0.003h20.64c10.162 0 18.4 8.238 18.4 18.4v0 32c-0.963 9.759-8.873 17.393-18.67 17.918l-0.050 0.002zM818.080 619.040h-19.68c-9.402-0.192-17.395-6.026-20.745-14.247l-0.055-0.153-3.84-9.12c-1.392-2.811-2.206-6.12-2.206-9.62 0-5.885 2.302-11.232 6.055-15.19l-0.009 0.010 14.4-14.4-20.8-20.96-14.4 14.4c-3.961 3.807-9.353 6.152-15.292 6.152-3.456 0-6.727-0.794-9.64-2.21l-8.989-3.942c-8.456-2.944-14.416-10.847-14.416-20.142 0-0.287 0.006-0.574 0.017-0.858l-0.001 0.041v-19.68h-28.64v18.88c-0.169 9.452-6.005 17.5-14.247 20.904l-0.153 0.056-9.44 4.32c-2.805 1.441-6.12 2.286-9.633 2.286-5.924 0-11.286-2.402-15.167-6.286l-14.4-14.4-20.8 20.96 14.4 14.4c3.477 3.928 5.6 9.124 5.6 14.816 0 3.143-0.647 6.135-1.816 8.849l0.056-0.146-3.84 9.12c-2.891 8.448-10.762 14.414-20.027 14.414-0.272 0-0.542-0.005-0.812-0.015l0.039 0.001h-19.2v30.24h19.52c9.402 0.192 17.395 6.026 20.745 14.247l0.055 0.153 3.84 9.12c1.112 2.548 1.759 5.516 1.759 8.636 0 6.377-2.703 12.122-7.026 16.152l-0.013 0.012-12.96 14.4 20.8 20.96 14.4-14.4c4.276-3.277 9.702-5.252 15.588-5.252 2.835 0 5.563 0.458 8.114 1.304l-0.182-0.052 9.12 4c9.17 2.794 15.769 11.076 16 20.934v19.706h29.92v-19.68c0.169-9.452 6.005-17.5 14.247-20.904l0.153-0.056 9.12-4c2.805-1.441 6.12-2.286 9.633-2.286 5.924 0 11.286 2.402 15.167 6.286l14.4 14.4 20.8-20.96-14.4-14.4c-4.407-3.779-7.182-9.353-7.182-15.575 0-2.991 0.641-5.833 1.794-8.394l-0.052 0.129 3.84-9.12c2.891-8.448 10.762-14.414 20.027-14.414 0.272 0 0.542 0.005 0.812 0.015l-0.039-0.001h19.52zM807.68 470.56c-8.837 0-16-7.163-16-16v0-193.12c0-17.673-14.327-32-32-32v0h-432c-17.673 0-32 14.327-32 32v0 448c0 17.673 14.327 32 32 32v0h194.080c8.837 0 16 7.163 16 16s-7.163 16-16 16v0h-194.080c-35.346 0-64-28.654-64-64v0-448c0-35.346 28.654-64 64-64v0h432c35.346 0 64 28.654 64 64v0 193.12c0 8.837-7.163 16-16 16v0z" />
<glyph unicode="&#xe924;" glyph-name="histogram" d="M840 177.44h-656c-8.837 0-16-7.163-16-16s7.163-16 16-16v0h656c8.837 0 16 7.163 16 16s-7.163 16-16 16v0zM588.48 217.76c13.255 0 24 10.745 24 24v0 484.8c0 13.255-10.745 24-24 24s-24-10.745-24-24v0-484.8c0-13.255 10.745-24 24-24v0zM741.28 217.76c13.255 0 24 10.745 24 24v0 384c0 13.255-10.745 24-24 24s-24-10.745-24-24v0-384c0-13.255 10.745-24 24-24v0zM435.52 217.76c13.255 0 24 10.745 24 24v0 311.36c0 13.255-10.745 24-24 24s-24-10.745-24-24v0-311.36c0-13.255 10.745-24 24-24v0zM282.72 217.76c13.255 0 24 10.745 24 24v0 216.8c0 13.255-10.745 24-24 24s-24-10.745-24-24v0-216.8c0-13.255 10.745-24 24-24v0z" />
<glyph unicode="&#xe925;" glyph-name="index" d="M882.080 436.32l-358.72 358.72c-2.892 2.875-6.878 4.653-11.28 4.653s-8.388-1.777-11.281-4.653l-358.879-358.719c-3.432-2.952-5.593-7.3-5.593-12.153 0-8.837 7.163-16 16-16 4.853 0 9.201 2.16 12.135 5.572l0.018 0.021 59.52 59.68v-305.12c0.091-39.728 32.272-71.909 71.991-72h127.049c2.255 0.004 4.4 0.475 6.343 1.32l-0.103-0.040c3.832 1.655 6.825 4.648 8.44 8.376l0.040 0.104c0.805 1.84 1.276 3.985 1.28 6.238v166.402h163.68c8.837 0 16 7.163 16 16v0 0c0 8.837-7.163 16-16 16v0h-179.52c-8.837 0-16-7.163-16-16v0 0-166.72h-115.2c-0.095-0.001-0.208-0.001-0.32-0.001-19.706 0-35.68 15.974-35.68 35.68 0 0.057 0 0.113 0 0.17v-0.009 341.6l256 256 347.36-347.84c2.952-3.432 7.3-5.593 12.153-5.593 8.837 0 16 7.163 16 16 0 4.853-2.16 9.201-5.572 12.135l-0.021 0.018zM784 384c-8.837 0-16-7.163-16-16v0-204.16c0-0.048 0-0.105 0-0.161 0-19.706-15.974-35.68-35.68-35.68-0.113 0-0.225 0.001-0.338 0.002h-131.343c-8.837 0-16-7.163-16-16s7.163-16 16-16v0h127.040c39.728 0.091 71.909 32.272 72 71.991v200.009c0 0.001 0 0.002 0 0.003 0 8.724-6.982 15.817-15.663 15.997h-0.017z" />
<glyph unicode="&#xe926;" glyph-name="information" d="M736 800h-448c-53.019 0-96-42.981-96-96v0-512c0-53.019 42.981-96 96-96v0h448c53.019 0 96 42.981 96 96v0 512c0 53.019-42.981 96-96 96v0zM800 188.8c-0.091-33.542-27.258-60.709-60.791-60.8h-454.409c-33.542 0.091-60.709 27.258-60.8 60.791v518.409c0.091 33.542 27.258 60.709 60.791 60.8h454.409c33.542-0.091 60.709-27.258 60.8-60.791v-0.009zM656 384h-304c-8.837 0-16-7.163-16-16s7.163-16 16-16v0h304c8.837 0 16 7.163 16 16s-7.163 16-16 16v0zM656 286.4h-304c-8.837 0-16-7.163-16-16s7.163-16 16-16v0h304c8.837 0 16 7.163 16 16s-7.163 16-16 16v0zM350.56 456h164.32c7.563 0.089 13.671 6.197 13.76 13.751v164.489c-0.089 7.563-6.197 13.671-13.751 13.76h-164.329c-7.563-0.089-13.671-6.197-13.76-13.751v-164.489c0.089-7.563 6.197-13.671 13.751-13.76h0.009zM368 612.8c0 1.767 1.433 3.2 3.2 3.2v0h121.6c1.767 0 3.2-1.433 3.2-3.2v0-121.6c0-1.767-1.433-3.2-3.2-3.2v0h-121.6c-1.767 0-3.2 1.433-3.2 3.2v0z" />
<glyph unicode="&#xe927;" glyph-name="labmai" d="M146.4 283.68h-16.96v-83.36h59.2v14.24h-42.24v69.12zM566.080 200.32h15.68v66.24l16.64-66.24h16.48l16.64 66.24v-66.24h15.68v84.16h-25.44l-15.040-57.44-15.2 57.44h-25.44v-84.16zM879.040 284.48h16.96v-84.16h-16.96v84.16zM308.16 284.48h-17.92l-32-84.16h18.080l6.88 19.040h33.6l7.36-19.040h18.56zM288 233.6l11.36 32 11.52-32zM482.56 237.44c-2.956 3.708-7.020 6.421-11.686 7.646l-0.154 0.034c3.591 1.61 6.528 4.136 8.594 7.285l0.046 0.075c2.006 3.033 3.2 6.756 3.2 10.758 0 0.043 0 0.086 0 0.129v-0.007c0.001 0.066 0.001 0.144 0.001 0.222 0 3.512-0.951 6.803-2.61 9.628l0.049-0.089c-1.621 2.835-3.77 5.189-6.332 6.995l-0.068 0.045c-2.496 1.729-5.466 2.966-8.673 3.502l-0.127 0.018c-3.778 0.527-8.143 0.828-12.578 0.828-0.809 0-1.616-0.010-2.421-0.030l0.119 0.002h-33.92v-84.16h28.8q16 0 20.48 0c4.274 0.389 8.148 1.828 11.446 4.055l-0.086-0.055c3.131 2.212 5.629 5.12 7.301 8.508l0.059 0.132c1.695 3.257 2.698 7.109 2.72 11.193v0.007c0.015 0.294 0.024 0.638 0.024 0.984 0 4.65-1.574 8.932-4.218 12.342l0.034-0.046zM433.28 270.4h9.76q12 0 14.56 0c2.514-0.143 4.754-1.217 6.399-2.879l0.001-0.001c1.304-1.586 2.095-3.637 2.095-5.873 0-0.185-0.005-0.369-0.016-0.552l0.001 0.025c0.004-0.104 0.007-0.226 0.007-0.348 0-2.425-0.981-4.621-2.567-6.212v0c-1.808-1.716-4.197-2.836-6.842-3.038l-0.038-0.002h-23.52zM466.72 218.4c-1.59-1.755-3.747-2.969-6.18-3.352l-0.060-0.008c-1.748-0.143-3.785-0.225-5.84-0.225s-4.092 0.082-6.106 0.242l0.266-0.017h-16v22.4h13.76c0.973 0.058 2.11 0.092 3.255 0.092 4.173 0 8.242-0.441 12.165-1.28l-0.38 0.068c2.178-0.71 3.986-2.053 5.259-3.81l0.021-0.030c1.108-1.692 1.768-3.765 1.768-5.992 0-0.144-0.003-0.286-0.008-0.429l0.001 0.020c0.070-0.453 0.11-0.976 0.11-1.507 0-2.323-0.762-4.469-2.050-6.2l0.020 0.028zM771.52 284.48h-17.92l-32-84.16h18.080l6.88 19.040h33.6l7.36-19.040h18.56zM751.040 233.6l11.36 32 11.52-32zM562.080 693.92h-91.84c-4.109 0-7.44-3.331-7.44-7.44s3.331-7.44 7.44-7.44v0 0-316.8c0.226-25.101 20.627-45.362 45.76-45.362 25.274 0 45.762 20.488 45.762 45.762 0 0.141-0.001 0.281-0.002 0.421v-0.021 316c4.109 0 7.44 3.331 7.44 7.44s-3.331 7.44-7.44 7.44v0zM491.84 602.88c0 5.744 4.656 10.4 10.4 10.4s10.4-4.656 10.4-10.4c0-5.744-4.656-10.4-10.4-10.4v0c-5.744 0-10.4 4.656-10.4 10.4v0zM504.8 366.56c-4.418 0-8 3.582-8 8s3.582 8 8 8c4.418 0 8-3.582 8-8v0c0 0 0-0.001 0-0.002 0-4.362-3.491-7.909-7.832-7.998h-0.008zM532.8 558.56c-4.418 0-8 3.582-8 8s3.582 8 8 8c4.418 0 8-3.582 8-8v0c0.026-0.24 0.040-0.518 0.040-0.8 0-4.418-3.582-8-8-8-0.014 0-0.028 0-0.042 0h0.002zM553.28 628c-22.24 7.2-46.56-2.4-71.84 0v51.68h71.84zM839.52 695.68h56.48v-377.92h-56.48v377.92zM771.36 695.68h38.88v-377.92h-38.88v377.92zM389.76 694.24h38.88v-371.52h-38.88v371.52zM128 694.24h51.040v-371.52h-51.040v371.52zM234.56 694.24h80.16v-371.52h-80.16v371.52zM617.6 694.24h59.52v-371.52h-59.52v371.52z" />
<glyph unicode="&#xe928;" glyph-name="latitude" d="M912 157.76l-354.4 614.080c0.61 2.783 0.96 5.98 0.96 9.258 0 24.919-20.201 45.12-45.12 45.12s-45.12-20.201-45.12-45.12c0-3.278 0.35-6.475 1.014-9.555l-0.054 0.297-353.92-612.96c-20.047-4.809-34.716-22.58-34.716-43.777 0-24.831 20.129-44.96 44.96-44.96 12.598 0 23.985 5.181 32.148 13.529l0.008 0.008h708.48c8.194-8.523 19.693-13.818 32.428-13.818 24.831 0 44.96 20.129 44.96 44.96 0 20.072-13.153 37.071-31.309 42.85l-0.318 0.087zM185.12 115.68c-5.515 0.028-10.692 1.447-15.206 3.924l0.166-0.084c0 1.28 0 2.56 0 3.84l36.32 20.64-16 27.68-37.44-21.12h-0.8c0.246 5.33 1.759 10.258 4.242 14.554l-0.082-0.154 328.32 569.28c1.791 3.012 3.915 5.594 6.371 7.814l0.029 0.026c1.806-1.116 3.911-2.189 6.104-3.092l0.296-0.108v-338.88c-31.972-5.567-55.97-33.109-55.97-66.255 0-5.617 0.689-11.073 1.987-16.288l-0.097 0.463-44-25.76 16-27.68 42.56 24.8c12.412-14.796 30.909-24.136 51.588-24.136 20.086 0 38.114 8.813 50.428 22.782l0.064 0.073 6.72-3.84 16 27.68-7.52 4.32c1.578 5.401 2.486 11.605 2.486 18.022 0 30.12-20.006 55.567-47.455 63.777l-0.471 0.121v340.96c2.489 1.012 4.594 2.085 6.595 3.311l-0.195-0.111c2.485-2.246 4.609-4.828 6.316-7.688l0.084-0.152 328-568.8c2.1-3.643 3.526-7.932 3.989-12.505l0.011-0.135c-3.082-1.952-5.755-4.118-8.154-6.554l-0.006-0.006-28.16 16-16-27.68 30.24-17.76c-3.185-1.175-6.864-1.875-10.7-1.92h-0.020zM225.92 192.48l16-27.68 75.52 43.36-16 27.68-75.52-43.36zM337.28 256.8l16-27.68 38.24 22.24-16 27.68-38.24-22.24zM724.16 192.64l52.32-30.56 15.84 27.68-52.16 30.56-16-27.68zM597.28 266.56l30.24-17.6 16 27.84-30.24 17.6-16-27.84zM648.8 236.64l40.64-23.84 16 27.84-40.64 23.68-16-27.68z" />
<glyph unicode="&#xe929;" glyph-name="link" d="M806.4 754.4c-22.581 19.050-52.007 30.628-84.137 30.628-36.761 0-69.982-15.156-93.756-39.559l-97.308-97.308c-2.391-2.78-3.847-6.423-3.847-10.407 0-8.837 7.163-16 16-16 3.984 0 7.628 1.456 10.428 3.865l-0.021-0.018 97.6 97.6c17.961 18.484 43.056 29.953 70.829 29.953 25.252 0 48.289-9.481 65.747-25.078l-0.096 0.084c18.604-17.549 30.186-42.366 30.186-69.889 0-26.504-10.74-50.499-28.106-67.871l-187.36-187.52c-18.739-19.236-44.894-31.168-73.836-31.168-13.746 0-26.863 2.692-38.853 7.577l0.689-0.248c-12.668 5.512-23.355 13.43-31.909 23.253l-0.091 0.107c-2.916 3.033-7.008 4.916-11.539 4.916-8.837 0-16-7.163-16-16 0-3.814 1.335-7.317 3.563-10.066l-0.023 0.030c16.166-18.662 38.25-31.813 63.311-36.532l0.689-0.108c8.371-1.679 17.995-2.64 27.843-2.64 41.489 0 78.995 17.054 105.891 44.533l0.026 0.026 180.32 180.96c23.171 23.165 37.503 55.17 37.503 90.522 0 38.357-16.871 72.773-43.598 96.233l-0.145 0.125zM470.24 270.56l-97.6-97.6c-17.961-18.484-43.056-29.953-70.829-29.953-25.252 0-48.289 9.481-65.747 25.078l0.096-0.084c-18.604 17.549-30.186 42.366-30.186 69.889 0 26.504 10.74 50.499 28.106 67.871l187.36 187.36c18.739 19.236 44.894 31.168 73.836 31.168 13.746 0 26.863-2.692 38.853-7.577l-0.689 0.248c12.668-5.512 23.355-13.43 31.909-23.253l0.091-0.107c2.916-3.033 7.008-4.916 11.539-4.916 8.837 0 16 7.163 16 16 0 3.814-1.335 7.317-3.563 10.066l0.023-0.030c-16.166 18.662-38.25 31.813-63.311 36.532l-0.689 0.108c-8.371 1.679-17.995 2.64-27.843 2.64-41.489 0-78.995-17.054-105.891-44.533l-0.026-0.026-180.32-180.96c-23.171-23.165-37.503-55.17-37.503-90.522 0-38.357 16.871-72.773 43.598-96.233l0.145-0.125c22.581-19.050 52.007-30.628 84.137-30.628 36.761 0 69.982 15.156 93.756 39.559l97.468 97.468c3.432 2.952 5.593 7.3 5.593 12.153 0 8.837-7.163 16-16 16-4.853 0-9.201-2.16-12.135-5.572l-0.018-0.021z" />
<glyph unicode="&#xe92a;" glyph-name="more" d="M272 448c0-26.51-21.49-48-48-48s-48 21.49-48 48c0 26.51 21.49 48 48 48s48-21.49 48-48zM560 448c0-26.51-21.49-48-48-48s-48 21.49-48 48c0 26.51 21.49 48 48 48s48-21.49 48-48zM848 448c0-26.51-21.49-48-48-48s-48 21.49-48 48c0 26.51 21.49 48 48 48s48-21.49 48-48z" />
<glyph unicode="&#xe92b;" glyph-name="notice" d="M771.52 256.96l-51.52 89.12v180.8c0.003 0.441 0.005 0.962 0.005 1.484 0 98.572-66.77 181.549-157.549 206.17l-1.496 0.346c0 26.51-21.49 48-48 48s-48-21.49-48-48v0c-92.59-22.039-160.469-103.823-160.96-201.545v-187.255l-51.52-89.12c-3.073-5.233-4.889-11.526-4.889-18.242 0-20.147 16.333-36.48 36.48-36.48 0.144 0 0.287 0.001 0.43 0.002h127.978c6.506-49.865 48.723-87.976 99.84-87.976s93.334 38.11 99.786 87.468l0.054 0.508h128c20.047 0.132 36.248 16.414 36.248 36.479 0 6.716-1.815 13.008-4.981 18.413l0.093-0.172zM512 146.88c-0.004 0-0.009 0-0.014 0-33.299 0-61.072 23.656-67.432 55.079l-0.075 0.441h134.88c-6.424-31.816-34.122-55.447-67.352-55.52h-0.008zM739.68 234.24h-455.36c-0.001 0-0.002 0-0.003 0-2.651 0-4.8 2.149-4.8 4.8 0 0.884 0.239 1.712 0.655 2.423l-0.012-0.023 51.52 89.12c2.706 4.587 4.309 10.105 4.32 15.997v195.363c0.272 92.321 75.039 167.088 167.334 167.36h17.306c92.321-0.272 167.088-75.039 167.36-167.334v-195.226c0.011-5.895 1.614-11.413 4.402-16.15l-0.082 0.15 51.36-89.28c0.405-0.689 0.645-1.518 0.645-2.403 0-2.596-2.061-4.711-4.637-4.797h-0.008z" />
<glyph unicode="&#xe92c;" glyph-name="number" d="M838.4 235.36h-652.8c-9.72 0-17.6-7.88-17.6-17.6s7.88-17.6 17.6-17.6v0h652.8c9.72 0 17.6 7.88 17.6 17.6s-7.88 17.6-17.6 17.6v0zM195.36 649.6h41.92v-314.56c0-10.869 8.811-19.68 19.68-19.68s19.68 8.811 19.68 19.68v0 332.64s0 0 0 0 0 0 0 0c0 10.869-8.811 19.68-19.68 19.68h-61.6c-10.869 0-19.68-8.811-19.68-19.68s8.811-19.68 19.68-19.68v0zM351.040 560c9.275 0.012 16.927 6.944 18.071 15.909l0.009 0.091c2.376 21.892 10.732 41.476 23.381 57.518l-0.181-0.238c11.477 15.66 29.803 25.714 50.476 25.714 1.324 0 2.639-0.041 3.942-0.123l-0.179 0.009c1.053 0.055 2.285 0.087 3.525 0.087 18.784 0 35.884-7.209 48.685-19.012l-0.050 0.045c11.678-12.282 18.862-28.933 18.862-47.261 0-1.555-0.052-3.097-0.153-4.626l0.011 0.207c-0.444-25.408-10.404-48.407-26.456-65.661l0.056 0.061c-16.258-16.268-33.814-31.234-52.5-44.734l-1.26-0.866c-28.094-20.523-52.526-43.481-73.868-69.103l-0.532-0.657c-11.599-13.612-20.77-29.701-26.592-47.315l-0.288-1.005c-0.967-2.916-1.525-6.273-1.525-9.76 0-17.673 14.327-32 32-32 0.030 0 0.060 0 0.089 0h172.795c10.339 0 18.72 8.381 18.72 18.72s-8.381 18.72-18.72 18.72v0h-162.080c6.24 24.64 31.2 57.6 74.88 88.8 26.539 18.196 49.762 37.559 71.032 58.872l0.008 0.008c20.653 22.601 33.377 52.754 33.6 85.875v0.045c0.042 1.099 0.066 2.389 0.066 3.685 0 28.796-11.776 54.841-30.774 73.584l-0.012 0.011c-19.442 18.085-45.596 29.184-74.342 29.184-1.315 0-2.624-0.023-3.927-0.069l0.189 0.005c-1.142 0.044-2.482 0.069-3.829 0.069-32.008 0-60.69-14.24-80.055-36.731l-0.116-0.138c-17.754-21.031-29.213-47.893-31.178-77.353l-0.022-0.407c-0.054-0.528-0.084-1.14-0.084-1.76 0-10.135 8.195-18.357 18.32-18.4h0.004zM628.8 342.56c20.321-16.601 46.552-26.659 75.132-26.659 1.712 0 3.415 0.036 5.11 0.108l-0.242-0.008c1.587-0.076 3.448-0.12 5.318-0.12 31.403 0 59.95 12.225 81.142 32.176l-0.060-0.056c19.261 18.866 31.202 45.141 31.202 74.205 0 2.038-0.059 4.063-0.175 6.072l0.013-0.278c0.033 0.902 0.052 1.961 0.052 3.025 0 19.718-6.509 37.916-17.495 52.562l0.163-0.227c-10.835 15.026-26.104 26.256-43.875 31.836l-0.605 0.164c37.44 13.28 54.56 40.96 54.56 81.92 0.127 1.814 0.2 3.932 0.2 6.066 0 26.143-10.867 49.748-28.33 66.545l-0.030 0.029c-19.911 16.623-45.776 26.716-73.998 26.716-2.111 0-4.209-0.056-6.292-0.168l0.291 0.012c-1.46 0.071-3.171 0.112-4.892 0.112-28.856 0-55.053-11.384-74.345-29.906l0.036 0.035c-16.653-16.113-28.479-37.121-33.158-60.702l-0.122-0.738c-0.222-1.058-0.349-2.274-0.349-3.52 0-9.897 8.023-17.92 17.92-17.92 0.010 0 0.020 0 0.031 0h-0.002c0.006 0 0.012 0 0.019 0 8.244 0 15.163 5.668 17.076 13.319l0.026 0.121c4.314 16.857 12.868 31.327 24.466 42.706l0.014 0.014c12.73 12.178 30.027 19.675 49.074 19.675 1.649 0 3.284-0.056 4.905-0.167l-0.219 0.012c2.149 0.219 4.644 0.343 7.169 0.343 17.746 0 34.052-6.16 46.899-16.458l-0.148 0.115c11.065-12.010 17.85-28.112 17.85-45.799 0-1.225-0.033-2.442-0.097-3.65l0.007 0.169c0.014-0.493 0.021-1.074 0.021-1.656 0-18.222-7.615-34.664-19.836-46.32l-0.025-0.024c-12.745-10.099-29.058-16.202-46.796-16.202-1.944 0-3.871 0.073-5.778 0.217l0.254-0.015h-10.080c-8.837 0-16-7.163-16-16s7.163-16 16-16v0h11.52c1.523 0.105 3.302 0.165 5.094 0.165 19.316 0 37.007-6.957 50.704-18.502l-0.118 0.097c13.408-12.247 21.786-29.805 21.786-49.321 0-0.661-0.010-1.319-0.029-1.976l0.002 0.096c0.002-0.19 0.003-0.416 0.003-0.641 0-20.903-8.299-39.868-21.782-53.779l0.019 0.020c-14.874-14.693-35.326-23.769-57.898-23.769-20.751 0-39.711 7.671-54.198 20.332l0.096-0.083c-14.56 12.89-24.786 30.381-28.398 50.181l-0.082 0.539c-1.568 8.415-8.848 14.704-17.598 14.72h-0.002c-10.046-0.037-18.175-8.189-18.175-18.24 0-1.074 0.093-2.126 0.271-3.149l-0.016 0.109c3.799-28.742 17.169-53.822 36.748-72.431l0.052-0.049z" />
<glyph unicode="&#xe92d;" glyph-name="organization" d="M734.080 399.2c-7.064-0.077-13.922-0.714-20.602-1.869l0.762 0.109-49.92 99.68c30.601 31.624 49.461 74.773 49.461 122.327 0 97.202-78.798 176-176 176s-176-78.798-176-176c0-56.595 26.713-106.952 68.219-139.148l0.401-0.299c-0.57-0.541-1.094-1.115-1.574-1.726l-0.026-0.034-60.8-104.32c-18.054 8.759-39.269 13.879-61.681 13.879-79.529 0-144-64.471-144-144s64.471-144 144-144c79.529 0 144 64.471 144 144 0 44.695-20.362 84.634-52.316 111.046l-0.243 0.195 61.28 106.24s0 0 0 0.96c22.88-11.654 49.899-18.482 78.512-18.482 36.666 0 70.713 11.212 98.9 30.395l-0.612-0.393 43.52-86.72c-43.817-20.95-73.546-64.923-73.546-115.839 0-70.692 57.308-128 128-128s128 57.308 128 128c0 70.692-57.308 128-128 128-0.131 0-0.263 0-0.394-0.001h0.020zM417.92 244.32c0-61.856-50.144-112-112-112s-112 50.144-112 112c0 61.856 50.144 112 112 112v0c61.856 0 112-50.144 112-112v0zM394.080 619.68c0 79.529 64.471 144 144 144s144-64.471 144-144c0-79.529-64.471-144-144-144v0c-79.529 0-144 64.471-144 144v0zM734.080 175.2c-53.019 0-96 42.981-96 96s42.981 96 96 96c53.019 0 96-42.981 96-96v0c0-53.019-42.981-96-96-96v0z" />
<glyph unicode="&#xe92e;" glyph-name="pie" d="M530.4 823.68h-3.040c-8.837 0-16-7.163-16-16v0-352l-354.88-77.12c-4.284-0.994-7.832-3.601-10.041-7.133l-0.039-0.067c-1.561-2.427-2.488-5.39-2.488-8.569 0-1.273 0.149-2.512 0.43-3.699l-0.022 0.109c41.291-166.196 189.197-287.423 365.418-287.423 207.659 0 376 168.341 376 376 0 200.334-156.674 364.075-354.178 375.377l-1 0.046zM850.4 407.68c-20.933-171.686-165.813-303.376-341.451-303.376-155.168 0-286.33 102.784-329.115 243.981l-0.634 2.435 352 76.8c7.557 1.374 13.211 7.904 13.211 15.755 0 1.278-0.15 2.522-0.433 3.714l0.022-0.109c-0.371 1.109-0.804 2.060-1.321 2.957l0.041-0.077c0.764 1.743 1.23 3.771 1.28 5.901v334.899c174.534-18.319 309.392-164.683 309.392-342.544 0-14.158-0.854-28.116-2.515-41.826l0.163 1.65zM170.72 439.84c0 3.36 0 6.24 0 8.16 0.285 162.491 113.029 298.568 264.539 334.571l2.341 0.469c7.351 1.734 12.738 8.238 12.738 16 0 9.067-7.35 16.418-16.418 16.418-1.305 0-2.574-0.152-3.791-0.44l0.111 0.022c-168.366-39.971-291.68-189.051-291.68-366.933 0-0.038 0-0.075 0-0.113v0.006c0-1.92 0-5.12 0-8.8 0-8.837 7.163-16 16-16s16 7.163 16 16v0z" />
<glyph unicode="&#xe92f;" glyph-name="plus" d="M336 448c0-8.837 7.163-16 16-16v0h144v-144c0-8.837 7.163-16 16-16s16 7.163 16 16v0 144h144c8.837 0 16 7.163 16 16s-7.163 16-16 16v0h-144v144c0 8.837-7.163 16-16 16s-16-7.163-16-16v0-144h-144c-8.837 0-16-7.163-16-16v0zM184 218.24c4.418 0 8 3.582 8 8v0 64c0 4.418-3.582 8-8 8s-8-3.582-8-8v0-64c0-4.418 3.582-8 8-8v0zM592 768h64c4.418 0 8 3.582 8 8s-3.582 8-8 8v0h-64c-4.418 0-8-3.582-8-8s3.582-8 8-8v0zM184 378.24c4.418 0 8 3.582 8 8v0 64c0 4.418-3.582 8-8 8s-8-3.582-8-8v0-64c0-4.418 3.582-8 8-8v0zM184 698.24c4.418 0 8 3.582 8 8v0 45.76c0.009 3.212 0.962 6.2 2.598 8.701l-0.038-0.061c0.943 1.296 1.509 2.92 1.509 4.676 0 4.418-3.582 8-8 8-2.96 0-5.545-1.608-6.928-3.998l-0.021-0.038c-1.128-1.7-2.149-3.65-2.964-5.704l-0.076-0.216h-1.28v-45.76c-3.962-1.504-6.728-5.269-6.728-9.68 0-5.704 4.624-10.328 10.328-10.328 1.293 0 2.53 0.238 3.671 0.671l-0.071-0.024zM184 538.24c4.418 0 8 3.582 8 8v0 64c0 4.418-3.582 8-8 8s-8-3.582-8-8v0-64c0-4.418 3.582-8 8-8v0zM235.52 128h-27.52c-6.447 0.014-11.997 3.838-14.519 9.34l-0.041 0.1c-1.302 2.773-4.071 4.658-7.28 4.658-4.428 0-8.018-3.59-8.018-8.018 0-1.219 0.272-2.374 0.759-3.409l-0.021 0.049c4.267-9.655 12.897-16.7 23.32-18.688l0.2-0.032h33.12c4.418 0 8 3.582 8 8s-3.582 8-8 8v0zM432 768h64c4.418 0 8 3.582 8 8s-3.582 8-8 8v0h-64c-4.418 0-8-3.582-8-8s3.582-8 8-8v0zM395.52 128h-64c-4.418 0-8-3.582-8-8s3.582-8 8-8v0h64c4.418 0 8 3.582 8 8s-3.582 8-8 8v0zM840 321.28c-4.418 0-8-3.582-8-8v0-64c0-4.418 3.582-8 8-8s8 3.582 8 8v0 64c0 4.418-3.582 8-8 8v0zM840 641.28c-4.418 0-8-3.582-8-8v0-64c0-4.418 3.582-8 8-8s8 3.582 8 8v0 64c0 4.418-3.582 8-8 8v0zM344 776c0 4.418-3.582 8-8 8v0h-64c-4.418 0-8-3.582-8-8s3.582-8 8-8v0h64c4.418 0 8 3.582 8 8v0zM848 752h-2.88v0.96c-1.42 2.622-3.067 4.882-4.974 6.895l0.014-0.015-0.96 0.96h-14.72c4.773 1.781 8.111 6.301 8.111 11.6 0 6.821-5.53 12.351-12.351 12.351-1.522 0-2.979-0.275-4.325-0.779l0.085 0.028h-64c-4.418 0-8-3.582-8-8s3.582-8 8-8v0h66.24l2.080-0.96c6.677-1.915 11.511-7.89 11.68-15.021v-22.739c0-4.418 3.582-8 8-8s8 3.582 8 8v0 22.72zM840 481.28c-4.418 0-8-3.582-8-8v0-64c0-4.418 3.582-8 8-8s8 3.582 8 8v0 64c0 4.418-3.582 8-8 8v0zM555.52 128h-64c-4.418 0-8-3.582-8-8s3.582-8 8-8v0h64c4.418 0 8 3.582 8 8s-3.582 8-8 8v0zM840 161.28c-4.418 0-8-3.582-8-8v0-9.28c0-8.837-7.163-16-16-16v0h-4.48c-4.418 0-8-3.582-8-8s3.582-8 8-8v0h4.48c17.673 0 32 14.327 32 32v0 9.28c0 4.418-3.582 8-8 8v0zM715.52 128h-64c-4.418 0-8-3.582-8-8s3.582-8 8-8v0h64c4.418 0 8 3.582 8 8s-3.582 8-8 8v0z" />
<glyph unicode="&#xe930;" glyph-name="Refresh" d="M794.56 408.64c-8.664-0.416-15.584-7.336-15.999-15.962l-0.001-0.038c-8.546-140.114-124.268-250.511-265.775-250.511-147.040 0-266.24 119.2-266.24 266.24 0 145.245 116.307 263.326 260.868 266.187l0.267 0.004v-68.32c0.082-4.797 3.99-8.654 8.799-8.654 1.588 0 3.078 0.421 4.364 1.157l-0.043-0.023 148.96 85.92c2.629 1.555 4.364 4.375 4.364 7.6s-1.735 6.045-4.323 7.578l-0.041 0.022-148.96 85.92c-1.243 0.713-2.733 1.134-4.321 1.134-4.809 0-8.717-3.857-8.799-8.646v-70.248c-163.272-2.792-294.557-135.804-294.557-299.479 0-165.42 134.1-299.52 299.52-299.52 159.44 0 289.782 124.578 298.999 281.706l0.038 0.813c0.027 0.348 0.042 0.753 0.042 1.162 0 8.837-7.163 16-16 16-0.409 0-0.814-0.015-1.216-0.045l0.053 0.003z" />
<glyph unicode="&#xe931;" glyph-name="return" d="M657.28 128l-310.24 310.080c-2.517 2.519-4.074 5.998-4.074 9.84s1.557 7.321 4.074 9.84l310.24 310.24c2.519 2.517 5.998 4.074 9.84 4.074s7.321-1.557 9.84-4.074v0c2.517-2.519 4.074-5.998 4.074-9.84s-1.557-7.321-4.074-9.84l-293.92-293.92c-1.66-1.628-2.689-3.894-2.689-6.4s1.029-4.772 2.688-6.399l293.921-293.921c2.517-2.519 4.074-5.998 4.074-9.84s-1.557-7.321-4.074-9.84v0c-2.519-2.517-5.998-4.074-9.84-4.074s-7.321 1.557-9.84 4.074v0z" />
<glyph unicode="&#xe932;" glyph-name="room" d="M574.72 807.52l-339.52-80c-7.12-1.722-12.326-8.039-12.326-15.572 0-0.15 0.002-0.3 0.006-0.45v0.022-548c-0.001-0.069-0.002-0.151-0.002-0.233 0-7.876 5.691-14.423 13.185-15.753l0.097-0.014 339.84-59.2c0.818-0.148 1.76-0.233 2.722-0.233 8.837 0 16 7.163 16 16 0 0.082-0.001 0.164-0.002 0.246v-0.012 688c-0.164 8.71-7.263 15.709-15.997 15.709-1.422 0-2.801-0.186-4.114-0.534l0.112 0.025zM562.4 123.040l-307.68 53.92v522.88l307.52 72zM785.28 766.72h-128c-8.837 0-16-7.163-16-16s7.163-16 16-16v0h112v-573.44h-116c-8.837 0-16-7.163-16-16s7.163-16 16-16v0h132c8.837 0 16 7.163 16 16v0 605.44c0 8.837-7.163 16-16 16v0zM526.88 448c0-12.548-7.88-22.72-17.6-22.72s-17.6 10.172-17.6 22.72c0 12.548 7.88 22.72 17.6 22.72s17.6-10.172 17.6-22.72z" />
<glyph unicode="&#xe933;" glyph-name="search" d="M839.52 125.6l-114.72 114.4c62.602 59.23 101.563 142.889 101.563 235.649 0 179.029-145.131 324.16-324.16 324.16s-324.16-145.131-324.16-324.16c0-179.029 145.131-324.16 324.16-324.16 75.013 0 144.075 25.479 199.003 68.255l-0.726-0.544 116.48-116.48c2.78-2.391 6.423-3.847 10.407-3.847 8.837 0 16 7.163 16 16 0 3.984-1.456 7.628-3.865 10.428l0.018-0.021zM211.84 474.72c0 160.737 130.303 291.040 291.040 291.040s291.040-130.303 291.040-291.040c0-160.737-130.303-291.040-291.040-291.040v0c-160.737 0-291.040 130.303-291.040 291.040v0z" />
<glyph unicode="&#xe934;" glyph-name="settings" d="M512 576c-70.692 0-128-57.308-128-128s57.308-128 128-128c70.692 0 128 57.308 128 128v0c0 70.692-57.308 128-128 128v0zM512 352c-53.019 0-96 42.981-96 96s42.981 96 96 96c53.019 0 96-42.981 96-96v0c0.003-0.287 0.005-0.626 0.005-0.965 0-52.489-42.551-95.040-95.040-95.040-0.339 0-0.678 0.002-1.017 0.005h0.052zM819.2 528h-46.56c-5.537 0.047-10.232 3.603-11.973 8.55l-0.027 0.090c-3.631 10.089-7.085 18.169-10.922 26.027l0.682-1.547c-0.807 1.63-1.28 3.549-1.28 5.579 0 3.5 1.405 6.672 3.681 8.983l-0.002-0.002 32.96 32.32c8.301 8.138 13.447 19.468 13.447 32s-5.146 23.862-13.439 31.993l-49.767 49.767c-8.138 8.301-19.468 13.447-32 13.447s-23.862-5.146-31.993-13.439l-0.007-0.007-32-32.96c-2.309-2.275-5.481-3.68-8.981-3.68-2.030 0-3.949 0.472-5.654 1.313l0.075-0.033c-6.314 3.156-14.393 6.61-22.669 9.657l-1.811 0.583c-5.037 1.768-8.593 6.463-8.64 11.994v46.566c0 0 0 0.001 0 0.001 0 24.742-20.058 44.8-44.8 44.8-0.112 0-0.225 0-0.337-0.001h-70.383c-24.742 0-44.8-20.058-44.8-44.8v0-46.56c-0.047-5.537-3.603-10.232-8.55-11.973l-0.090-0.027c-10.091-3.633-18.17-7.087-26.029-10.922l1.549 0.682c-1.63-0.807-3.549-1.28-5.579-1.28-3.5 0-6.672 1.405-8.983 3.681l0.002-0.002-32.32 32.96c-8.138 8.301-19.468 13.447-32 13.447s-23.862-5.146-31.993-13.439l-49.767-49.767c-8.301-8.138-13.447-19.468-13.447-32s5.146-23.862 13.439-31.993l0.007-0.007 32.96-32c2.275-2.309 3.68-5.481 3.68-8.981 0-2.030-0.472-3.949-1.313-5.654l0.033 0.075c-3.155-6.313-6.609-14.392-9.656-22.668l-0.584-1.812c-1.768-5.037-6.463-8.593-11.994-8.64h-46.566c0 0-0.001 0-0.001 0-24.742 0-44.8-20.058-44.8-44.8 0-0.112 0-0.225 0.001-0.337v0.017-70.4c0-24.742 20.058-44.8 44.8-44.8h46.56c5.537-0.047 10.232-3.603 11.973-8.55l0.027-0.090c3.632-10.090 7.086-18.169 10.922-26.028l-0.682 1.548c0.807-1.63 1.28-3.549 1.28-5.579 0-3.5-1.405-6.672-3.681-8.983l0.002 0.002-32.96-32.32c-8.301-8.138-13.447-19.468-13.447-32s5.146-23.862 13.439-31.993l49.767-49.767c8.138-8.301 19.468-13.447 32-13.447s23.862 5.146 31.993 13.439l39.367 39.367c11.392-6.139 24.83-11.934 38.79-16.586l1.85-0.534v-55.68c0-24.742 20.058-44.8 44.8-44.8h70.4c24.742 0 44.8 20.058 44.8 44.8v0 33.44c0.040 13.19 8.053 24.498 19.471 29.361l0.209 0.079 2.4 0.96c3.693 1.612 7.995 2.549 12.516 2.549 8.785 0 16.743-3.54 22.526-9.272l-0.002 0.002 22.88-23.68c8.138-8.301 19.468-13.447 32-13.447s23.862 5.146 31.993 13.439l49.767 49.767c8.301 8.138 13.447 19.468 13.447 32s-5.146 23.862-13.439 31.993l-23.687 23.687c-5.729 5.78-9.269 13.739-9.269 22.524 0 4.521 0.938 8.824 2.629 12.723l-0.080-0.207 0.96 2.4c5.135 11.224 16.267 18.881 29.187 18.881 0.089 0 0.178 0 0.266-0.001h33.426c24.742 0 44.8 20.058 44.8 44.8v0 70.4c0 24.742-20.058 44.8-44.8 44.8v0zM832 400h-60.64c-18.767-0.12-34.706-12.1-40.705-28.816l-0.095-0.304-0.96-2.88c-2.24-5.92-4.48-11.68-7.2-17.28l-1.28-2.56c-2.765-5.559-4.382-12.107-4.382-19.032 0-11.916 4.789-22.713 12.547-30.572l-0.005 0.005 42.88-42.56-68.16-68.16-42.72 42.72c-7.855 7.754-18.652 12.542-30.568 12.542-6.926 0-13.474-1.618-19.286-4.496l0.254 0.114-2.56-1.28c-5.6-2.56-11.36-4.96-17.28-7.2l-2.88-1.12c-16.855-6.108-28.725-21.878-28.96-40.452v-60.668h-96v60.64c-0.12 18.767-12.1 34.706-28.816 40.705l-0.304 0.095-2.88 0.96c-5.92 2.24-11.68 4.48-17.28 7.2l-2.56 1.28c-5.559 2.765-12.107 4.382-19.032 4.382-11.916 0-22.713-4.789-30.572-12.547l0.005 0.005-42.56-42.88-68.16 68.16 42.72 42.72c7.754 7.855 12.542 18.652 12.542 30.568 0 6.926-1.618 13.474-4.496 19.286l0.114-0.254-1.28 2.56c-2.56 5.6-4.96 11.36-7.2 17.28l-1.12 2.88c-6.108 16.855-21.878 28.725-40.452 28.96h-60.668v96h60.64c18.767 0.12 34.706 12.1 40.705 28.816l0.095 0.304 0.96 2.88c2.24 5.92 4.48 11.68 7.2 17.28l1.28 2.56c2.765 5.559 4.382 12.107 4.382 19.032 0 11.916-4.789 22.713-12.547 30.572l0.005-0.005-42.88 42.56 68.16 68.16 42.72-42.72c7.86-7.785 18.679-12.595 30.62-12.595 6.968 0 13.553 1.637 19.392 4.549l-0.252-0.114 2.56 1.28c5.6 2.56 11.36 4.96 17.28 7.2l2.88 1.12c16.788 6.159 28.59 21.915 28.8 40.455v60.665h96v-60.64c0.12-18.767 12.1-34.706 28.816-40.705l0.304-0.095 2.88-1.12c5.92-2.24 11.68-4.48 17.28-7.2l2.56-1.28c5.559-2.765 12.107-4.382 19.032-4.382 11.916 0 22.713 4.789 30.572 12.547l-0.005-0.005 42.56 43.040 68.16-68.16-42.72-42.72c-7.754-7.855-12.542-18.652-12.542-30.568 0-6.926 1.618-13.474 4.496-19.286l-0.114 0.254 1.28-2.56c2.56-5.6 4.96-11.36 7.2-17.28l1.12-2.88c6.108-16.855 21.878-28.725 40.452-28.96h60.668z" />
<glyph unicode="&#xe935;" glyph-name="shut-down" d="M817.44 165.12l-282.88 282.88 282.88 282.88c2.391 2.78 3.847 6.423 3.847 10.407 0 8.837-7.163 16-16 16-3.984 0-7.628-1.456-10.428-3.865l0.021 0.018-282.88-282.88-282.88 282.88c-2.952 3.432-7.3 5.593-12.153 5.593-8.837 0-16-7.163-16-16 0-4.853 2.16-9.201 5.572-12.135l0.021-0.018 282.88-282.88-282.88-282.88c-2.391-2.78-3.847-6.423-3.847-10.407 0-8.837 7.163-16 16-16 3.984 0 7.628 1.456 10.428 3.865l-0.021-0.018 282.88 282.88 282.88-282.88c2.78-2.391 6.423-3.847 10.407-3.847 8.837 0 16 7.163 16 16 0 3.984-1.456 7.628-3.865 10.428l0.018-0.021z" />
<glyph unicode="&#xe936;" glyph-name="sign-out" d="M512 764.64c8.837 0 16-7.163 16-16v-288c0-8.837-7.163-16-16-16s-16 7.163-16 16v288c0 8.837 7.163 16 16 16zM680.48 707.52v0c-2.94-2.903-4.762-6.933-4.762-11.389 0-5.2 2.48-9.82 6.322-12.743l0.039-0.029c71.881-53 117.995-137.35 117.995-232.47 0-159.058-128.942-288-288-288s-288 128.942-288 288c0 96.856 47.812 182.545 121.122 234.753l0.883 0.597c3.988 2.945 6.545 7.628 6.545 12.908 0 4.388-1.766 8.363-4.627 11.254l0.001-0.001c-2.902 2.938-6.931 4.757-11.384 4.757-3.402 0-6.555-1.062-9.148-2.871l0.052 0.034c-82.248-58.69-135.233-153.791-135.233-261.268 0-176.731 143.269-320 320-320s320 143.269 320 320c0 105.646-51.196 199.335-130.132 257.611l-0.876 0.617c-2.598 1.898-5.855 3.036-9.378 3.036-4.473 0-8.517-1.835-11.42-4.794l-0.002-0.002z" />
<glyph unicode="&#xe937;" glyph-name="smart-lab" d="M791.040 334.88l98.080 40.16c4.406 21.864 6.928 46.998 6.928 72.72s-2.522 50.856-7.332 75.167l0.404-2.447-98.080 39.52c-1.196 0.354-2.058 1.433-2.080 2.718v0.002c-0.024 0.144-0.038 0.311-0.038 0.48s0.014 0.336 0.041 0.498l-0.002-0.018 41.44 98.72c-28.2 41.138-62.703 75.641-102.511 102.978l-1.329 0.862-22.56-9.44-75.36-32h-0.96c-1.287 0.022-2.366 0.884-2.715 2.060l-0.005 0.020-40 97.92c-21.864 4.401-46.998 6.919-72.72 6.919s-50.856-2.519-75.168-7.322l2.448 0.403-39.52-97.92c-0.354-1.196-1.433-2.058-2.718-2.080h-0.962l-98.72 41.6q-10.88-7.36-21.28-16v0l-10.56-8.64-2.72-2.24-2.080-1.76c-25.517-22.008-47.731-46.763-66.515-74.060l-0.845-1.3 41.28-98.080c0.026-0.144 0.040-0.31 0.040-0.48s-0.015-0.336-0.043-0.497l0.002 0.017c-0.022-1.287-0.884-2.366-2.060-2.715l-0.020-0.005-97.92-40.16c-4.403-21.864-6.922-46.998-6.922-72.72s2.52-50.856 7.326-75.168l-0.403 2.448 98.080-40.16c1.196-0.354 2.058-1.433 2.080-2.718v-0.002c0.026-0.144 0.040-0.31 0.040-0.48s-0.015-0.336-0.043-0.497l0.002 0.017-41.44-97.76c22.25-32.768 48.165-60.87 77.669-84.708l0.731-0.572 1.12-0.96 2.56-2.080q10.4-8.16 21.28-16v0l98.080 41.28h0.96c1.287-0.022 2.366-0.884 2.715-2.060l0.005-0.020 40.16-98.080c21.864-4.399 46.998-6.916 72.72-6.916s50.856 2.517 75.169 7.319l-2.449-0.403 40.16 98.080c0.354 1.196 1.433 2.058 2.718 2.080h0.962l97.76-41.44q10.88 7.36 21.28 16v0l1.76 1.28 2.24 1.76c30.357 24.354 56.375 52.406 77.867 83.801l0.853 1.319-40.8 98.080c-0.024 0.144-0.038 0.311-0.038 0.48s0.014 0.336 0.041 0.498l-0.002-0.018c0 0.001 0 0.003 0 0.005 0 1.246 0.792 2.308 1.9 2.709l0.020 0.006zM681.76 406.72l-1.92-0.8c-12.518-6.144-20.983-18.798-20.983-33.429 0-4.241 0.711-8.316 2.021-12.112l-0.078 0.261 41.44-101.44-54.56 21.92-46.88 19.2c-3.535 1.231-7.61 1.943-11.851 1.943-14.631 0-27.285-8.465-33.332-20.765l-0.097-0.218-0.8-1.92-42.72-97.76-41.6 98.72c-6.144 12.518-18.798 20.983-33.429 20.983-4.241 0-8.316-0.711-12.112-2.021l0.261 0.078-47.52-17.92-54.56-21.92 41.28 100.8c1.231 3.535 1.943 7.61 1.943 11.851 0 14.631-8.465 27.285-20.765 33.332l-0.218 0.097-1.92 0.8-97.92 41.6 98.72 41.92c12.518 6.144 20.983 18.798 20.983 33.429 0 4.241-0.711 8.316-2.021 12.112l0.078-0.261-40.64 100.96 53.92-21.76 47.2-18.88c3.535-1.231 7.61-1.943 11.851-1.943 14.631 0 27.285 8.465 33.332 20.765l0.097 0.218 0.8 1.92 42.24 97.92 41.92-98.72c6.144-12.518 18.798-20.983 33.429-20.983 4.241 0 8.316 0.711 12.112 2.021l-0.261-0.078 46.88 19.2 53.92 21.6-40.48-100.8c-1.231-3.535-1.943-7.61-1.943-11.851 0-14.631 8.465-27.285 20.765-33.332l0.218-0.097 1.92-0.8 98.080-42.56zM550.56 448c0-21.296-17.264-38.56-38.56-38.56s-38.56 17.264-38.56 38.56c0 21.296 17.264 38.56 38.56 38.56s38.56-17.264 38.56-38.56z" />
<glyph unicode="&#xe938;" glyph-name="star-selected" d="M716.64 84.96l-204.64 107.040-204.64-107.040c-4.082-2.208-8.936-3.506-14.093-3.506-16.613 0-30.080 13.467-30.080 30.080 0 1.918 0.18 3.795 0.523 5.613l-0.029-0.187 39.040 227.84-165.44 161.12c-5.689 5.481-9.223 13.165-9.223 21.675 0 14.898 10.83 27.266 25.046 29.661l0.177 0.025 228.8 33.28 102.24 208c5.028 9.999 15.207 16.74 26.96 16.74s21.932-6.741 26.881-16.567l0.079-0.173 102.24-208 228.8-33.28c14.393-2.42 25.223-14.788 25.223-29.685 0-8.51-3.534-16.194-9.214-21.666l-0.009-0.009-164.16-161.44 39.040-227.84c0.264-1.497 0.415-3.222 0.415-4.981 0-16.613-13.467-30.080-30.080-30.080-5.063 0-9.833 1.251-14.019 3.46l0.164-0.079z" />
<glyph unicode="&#xe939;" glyph-name="star" d="M870.080 557.28l-228.8 33.12-102.24 208c-5.028 9.999-15.207 16.74-26.96 16.74s-21.932-6.741-26.881-16.567l-0.079-0.173-102.24-208-228.96-33.12c-14.393-2.42-25.223-14.788-25.223-29.685 0-8.51 3.534-16.194 9.214-21.666l0.009-0.009 164.96-161.44-39.2-227.84c-0.314-1.631-0.493-3.508-0.493-5.426 0-16.613 13.467-30.080 30.080-30.080 5.157 0 10.011 1.298 14.253 3.585l-0.16-0.079 204.64 107.36 204.64-107.52c4.082-2.208 8.936-3.506 14.093-3.506 16.613 0 30.080 13.467 30.080 30.080 0 1.918-0.18 3.795-0.523 5.613l0.029-0.187-39.2 228 165.6 161.44c5.637 5.473 9.135 13.123 9.135 21.59 0 15.094-11.117 27.591-25.61 29.75l-0.165 0.020zM698.080 366.72c-5.595-5.467-9.065-13.089-9.065-21.522 0-1.78 0.155-3.524 0.451-5.219l-0.026 0.18 38.56-225.12-202.080 106.24c-4.059 2.177-8.88 3.457-14 3.457s-9.941-1.279-14.161-3.535l0.161 0.079-201.92-106.24 38.56 224.96c0.27 1.515 0.425 3.259 0.425 5.038 0 8.432-3.47 16.054-9.059 21.516l-0.006 0.006-163.52 160 225.92 32.8c9.941 1.371 18.222 7.429 22.641 15.835l0.079 0.165 100.96 204.8 101.12-204.16c4.498-8.571 12.779-14.629 22.563-15.982l0.157-0.018 225.92-32.8z" />
<glyph unicode="&#xe93a;" glyph-name="system-selection" d="M666.4 744c0 8.837-7.163 16-16 16v0h-401.92c-35.346 0-64-28.654-64-64v0-404.96c0-8.837 7.163-16 16-16s16 7.163 16 16v0 404.96c0 17.673 14.327 32 32 32v0h401.92c8.837 0 16 7.163 16 16v0zM793.76 680h-484.64c-25.273 0-45.76-20.487-45.76-45.76v0-452.48c0-25.273 20.487-45.76 45.76-45.76v0h484.64c25.273 0 45.76 20.487 45.76 45.76v0 452.64c-0.091 25.204-20.543 45.6-45.76 45.6 0 0 0 0 0 0v0zM807.52 188.16c0-11.134-9.026-20.16-20.16-20.16v0h-471.84c-11.134 0-20.16 9.026-20.16 20.16v0 267.2h512zM295.52 487.36v140.64c0 11.134 9.026 20.16 20.16 20.16v0h471.68c11.134 0 20.16-9.026 20.16-20.16v-140.64zM717.76 604.96v0c-3.206 3.168-7.614 5.124-12.48 5.124s-9.274-1.957-12.482-5.126l-45.758-45.758c-3.194-3.194-5.169-7.606-5.169-12.48 0-9.747 7.902-17.649 17.649-17.649 4.874 0 9.286 1.975 12.48 5.169l33.28 33.28 33.28-33.28c3.194-3.194 7.606-5.169 12.48-5.169 9.747 0 17.649 7.902 17.649 17.649 0 4.874-1.975 9.286-5.169 12.48v0z" />
<glyph unicode="&#xe93b;" glyph-name="text" d="M838.4 219.040h-652.8c-9.72 0-17.6-7.88-17.6-17.6s7.88-17.6 17.6-17.6v0h652.8c9.72 0 17.6 7.88 17.6 17.6s-7.88 17.6-17.6 17.6v0zM718.88 475.2c-3.213 0.19-6.971 0.298-10.753 0.298-34.266 0-66.456-8.887-94.391-24.483l0.984 0.504c-25.348-14.051-42.223-40.648-42.223-71.186 0-1.694 0.052-3.375 0.154-5.043l-0.011 0.229c-0.022-0.661-0.034-1.439-0.034-2.219 0-23.207 10.98-43.85 28.027-57.017l0.167-0.124c17.69-13.65 40.172-21.879 64.577-21.879 1.767 0 3.524 0.043 5.269 0.128l-0.246-0.010c28.899 0.007 55.951 7.912 79.116 21.674l-0.716-0.394c19.236 11.269 35.252 25.957 47.686 43.377l0.314 0.463v-40.64c0-9.057 7.343-16.4 16.4-16.4s16.4 7.343 16.4 16.4v0 176c0.113 1.907 0.178 4.136 0.178 6.381 0 28.103-10.105 53.847-26.881 73.794l0.143-0.175c-20.32 22.56-51.040 33.12-92.8 33.12-2.051 0.103-4.454 0.162-6.871 0.162-28.12 0-54.377-7.981-76.628-21.801l0.619 0.358c-17.892-11.184-31.536-27.722-38.828-47.348l-0.212-0.652c-0.637-1.714-1.005-3.694-1.005-5.76 0-9.392 7.613-17.005 17.005-17.005 7.326 0 13.569 4.632 15.962 11.127l0.038 0.118c5.743 15.093 16.015 27.38 29.137 35.505l0.303 0.175c15.436 9.525 34.146 15.169 54.173 15.169 1.824 0 3.638-0.047 5.439-0.139l-0.252 0.010q86.4 0 86.4-84.64v-17.92zM794.88 418.24c-1.687-26.465-15.275-49.443-35.422-63.825l-0.258-0.175c-21.642-19.268-50.326-31.040-81.76-31.040v0c-1.019-0.046-2.213-0.071-3.414-0.071-17.742 0-34.161 5.662-47.55 15.278l0.244-0.167c-11.415 8.518-18.726 21.987-18.726 37.164 0 0.266 0.002 0.531 0.007 0.796l-0.001-0.040c0 48 37.44 71.36 112.96 72l74.24 1.12zM207.040 300.16c1.755-0.72 3.793-1.139 5.928-1.139 6.712 0 12.458 4.132 14.834 9.991l0.038 0.107 44.64 112h203.2l44.64-112c2.42-5.965 8.168-10.094 14.88-10.094 8.845 0 16.014 7.17 16.014 16.014 0 2.132-0.417 4.167-1.173 6.027l0.039-0.107-150.080 373.28c-4.309 10.706-14.608 18.125-26.64 18.125s-22.331-7.42-26.571-17.933l-0.069-0.192-148.48-373.28c-0.734-1.771-1.161-3.827-1.161-5.983 0-6.659 4.068-12.368 9.855-14.777l0.106-0.039zM372.96 672c0.223 0.397 0.641 0.66 1.12 0.66s0.897-0.264 1.117-0.654l0.003-0.006 87.68-219.040h-177.6z" />
<glyph unicode="&#xe93c;" glyph-name="title" d="M269.76 784v-659.84c0.004-6.624 5.375-11.992 12-11.992 3.391 0 6.454 1.407 8.637 3.669l0.003 0.004 221.6 230.24 221.6-230.080c2.186-2.265 5.249-3.672 8.64-3.672 6.625 0 11.996 5.368 12 11.992v0 659.68zM722.24 173.76l-210.24 218.4-210.24-218.24v578.080h420.48z" />
<glyph unicode="&#xe93d;" glyph-name="type" d="M427.36 770.88h-211.2c-30.044 0-54.4-24.356-54.4-54.4v0-211.2c0-30.044 24.356-54.4 54.4-54.4h211.2c30.044 0 54.4 24.356 54.4 54.4v0 211.2c0 30.044-24.356 54.4-54.4 54.4v0zM449.76 505.28c0-12.371-10.029-22.4-22.4-22.4v0h-211.2c-12.371 0-22.4 10.029-22.4 22.4v0 211.2c0 12.371 10.029 22.4 22.4 22.4v0h211.2c12.371 0 22.4-10.029 22.4-22.4v0zM848 656l-126.56 126.56c-8.722 8.915-20.876 14.442-34.32 14.442s-25.598-5.527-34.312-14.433l-0.008-0.009-126.56-126.56c-8.915-8.722-14.442-20.876-14.442-34.32s5.527-25.598 14.433-34.312l0.009-0.008 126.56-126.56c8.722-8.915 20.876-14.442 34.32-14.442s25.598 5.527 34.312 14.433l0.008 0.009 126.56 126.88c8.818 8.708 14.279 20.796 14.279 34.16s-5.461 25.452-14.274 34.155l-0.005 0.005zM825.44 609.92l-126.56-126.56c-2.927-3.121-7.077-5.065-11.68-5.065s-8.753 1.944-11.672 5.056l-0.008 0.009-126.72 127.040c-3.121 2.927-5.065 7.077-5.065 11.68s1.944 8.753 5.056 11.672l0.009 0.008 126.56 126.56c2.927 3.121 7.077 5.065 11.68 5.065s8.753-1.944 11.672-5.056l0.008-0.009 126.56-126.56c3.168-2.932 5.145-7.113 5.145-11.755 0-4.565-1.912-8.684-4.979-11.599l-0.007-0.006zM427.36 418.88h-211.2c-30.044 0-54.4-24.356-54.4-54.4v0-211.2c0-30.044 24.356-54.4 54.4-54.4h211.2c30.044 0 54.4 24.356 54.4 54.4v0 211.2c0 30.044-24.356 54.4-54.4 54.4v0zM449.76 153.28c0-12.371-10.029-22.4-22.4-22.4v0h-211.2c-12.371 0-22.4 10.029-22.4 22.4v0 211.2c0 12.371 10.029 22.4 22.4 22.4h211.2c12.371 0 22.4-10.029 22.4-22.4v0zM779.84 418.88h-211.2c-30.044 0-54.4-24.356-54.4-54.4v0-211.2c0-30.044 24.356-54.4 54.4-54.4h211.2c30.044 0 54.4 24.356 54.4 54.4v0 211.2c0 30.044-24.356 54.4-54.4 54.4v0zM802.24 153.28c0-12.371-10.029-22.4-22.4-22.4h-211.2c-12.371 0-22.4 10.029-22.4 22.4v0 211.2c0 12.371 10.029 22.4 22.4 22.4h211.2c12.371 0 22.4-10.029 22.4-22.4v0z" />
<glyph unicode="&#xe93e;" glyph-name="user-management" d="M499.040 448c42.966-0.072 83.486-10.471 119.232-28.848l-1.472 0.688c1.941-0.903 4.214-1.429 6.61-1.429 6.016 0 11.256 3.32 13.989 8.228l0.042 0.081c1.159 2.159 1.839 4.724 1.839 7.448 0 5.988-3.289 11.207-8.159 13.95l-0.080 0.042c-15.136 7.815-32.874 14.848-51.352 20.129l-2.088 0.511c53.282 29.712 88.725 85.729 88.725 150.024 0 94.551-76.649 171.2-171.2 171.2s-171.2-76.649-171.2-171.2c0-65.123 36.361-121.753 89.889-150.696l0.906-0.448c-123.651-37.365-212.142-150.266-212.16-283.838v-18.882c0-8.837 7.163-16 16-16s16 7.163 16 16v0 18.88c0 0.102 0 0.224 0 0.346 0 144.421 116.037 261.74 259.965 263.812l0.195 0.002h4.16zM356 618.56c-0.001 0.174-0.001 0.381-0.001 0.587 0 76.878 62.322 139.2 139.2 139.2s139.2-62.322 139.2-139.2c0-75.527-60.151-137.006-135.161-139.143l-0.197-0.004h-4.16c-76.516 0.181-138.517 62.069-138.88 138.525v0.035zM676.8 302.56c-0.048 0-0.104 0-0.16 0-28.896 0-52.32-23.424-52.32-52.32s23.424-52.32 52.32-52.32c28.895 0 52.32 23.424 52.32 52.32v0c0 0 0 0 0 0 0 28.839-23.333 52.229-52.151 52.32h-0.009zM678.88 217.6c-0.804-0.072-1.74-0.113-2.686-0.113-17.673 0-32 14.327-32 32 0 0.997 0.046 1.984 0.135 2.958l-0.009-0.125c1.19 16.377 14.183 29.37 30.453 30.554l0.107 0.006c0.804 0.072 1.74 0.113 2.686 0.113 17.673 0 32-14.327 32-32 0-0.997-0.046-1.984-0.135-2.958l0.009 0.125c-1.19-16.377-14.183-29.37-30.453-30.554l-0.107-0.006zM801.92 284.32h-20.8s-2.56 1.28-2.56 2.56l-3.84 10.4v2.56l14.4 14.4c3.245 3.408 5.242 8.031 5.242 13.12s-1.997 9.712-5.249 13.128l0.007-0.008-22.080 22.24c-3.333 3.347-7.944 5.419-13.040 5.419s-9.707-2.071-13.039-5.418l-14.401-14.401s-1.28-1.28-3.84 0l-10.72 3.68c-0.664 0.675-1.124 1.554-1.277 2.534l-0.003 0.026v20.8c0 10.162-8.238 18.4-18.4 18.4h-31.040c-10.162 0-18.4-8.238-18.4-18.4v0-20.8s-1.28-2.56-2.88-2.56l-10.4-4h-2.4l-14.4 14.4c-3.383 3.235-7.979 5.227-13.040 5.227s-9.657-1.991-13.047-5.233l-21.913-21.913c-3.245-3.408-5.242-8.031-5.242-13.12s1.997-9.712 5.249-13.128l-0.007 0.008 14.4-14.4s1.28-2.56 0-4l-3.84-9.12c-0.669-0.674-1.551-1.136-2.536-1.277l-0.024-0.003h-20.8c-10.214-0.851-18.189-9.326-18.24-19.675v-32.005c0-10.162 8.238-18.4 18.4-18.4v0h20.8s2.56-1.28 2.56-2.56l3.84-10.4v-2.56l-14.4-14.4c-3.245-3.408-5.242-8.031-5.242-13.12s1.997-9.712 5.249-13.128l-0.007 0.008 22.080-22.24c3.333-3.347 7.944-5.419 13.040-5.419s9.707 2.071 13.039 5.418l14.401 14.401s1.28 1.28 3.84 0l10.4-4c0.664-0.675 1.124-1.554 1.277-2.534l0.003-0.026v-21.6c0.348-9.446 8.089-16.972 17.589-16.972 0.229 0 0.457 0.004 0.684 0.013l-0.033-0.001h32c10.074 0 18.24 8.166 18.24 18.24v0 20.96s1.28 2.56 2.56 2.56l10.4 4h2.56l14.4-14.4c3.333-3.347 7.944-5.419 13.040-5.419s9.707 2.071 13.039 5.418l0.001 0.001 22.72 22.4c3.245 3.408 5.242 8.031 5.242 13.12s-1.997 9.712-5.249 13.128l0.007-0.008-14.4 14.4s-1.28 2.56 0 4l3.84 10.4c0.669 0.674 1.551 1.136 2.536 1.277l0.024 0.003h20.64c10.162 0 18.4 8.238 18.4 18.4v0 32c-1.148 9.832-9.34 17.416-19.341 17.6h-0.019zM800.64 236.32h-19.52c-9.402-0.192-17.395-6.026-20.745-14.247l-0.055-0.153-3.84-9.12c-1.392-2.811-2.206-6.12-2.206-9.62 0-5.885 2.302-11.232 6.055-15.19l-0.009 0.010 14.4-14.4-20.8-20.96-14.4 14.4c-3.961 3.807-9.353 6.152-15.292 6.152-3.456 0-6.727-0.794-9.64-2.21l-8.989-3.942c-8.456-2.944-14.416-10.847-14.416-20.142 0-0.287 0.006-0.574 0.017-0.858l-0.001 0.041v-19.68h-28.8v19.040c-0.169 9.452-6.005 17.5-14.247 20.904l-0.153 0.056-9.12 4c-2.805 1.441-6.12 2.286-9.633 2.286-5.924 0-11.286-2.402-15.167-6.286l-14.4-14.4-20.8 20.96 14.4 14.4c3.477 3.928 5.6 9.124 5.6 14.816 0 3.143-0.647 6.135-1.816 8.849l0.056-0.146-3.84 9.12c-2.891 8.448-10.762 14.414-20.027 14.414-0.272 0-0.542-0.005-0.812-0.015l0.039 0.001h-19.52v30.24h19.52c9.402 0.192 17.395 6.026 20.745 14.247l0.055 0.153 3.84 9.12c1.171 2.608 1.854 5.652 1.854 8.856 0 6.345-2.677 12.065-6.962 16.093l-0.012 0.011-12.96 14.4 20.8 20.96 14.4-14.4c4.276-3.277 9.702-5.252 15.588-5.252 2.835 0 5.563 0.458 8.114 1.304l-0.182-0.052 9.12 4c9.17 2.794 15.769 11.076 16 20.934v19.546h29.92v-19.68c0.169-9.452 6.005-17.5 14.247-20.904l0.153-0.056 9.12-4c2.805-1.441 6.12-2.286 9.633-2.286 5.924 0 11.286 2.402 15.167 6.286l14.4 14.4 20.8-20.96-14.4-14.4c-4.279-3.772-6.964-9.266-6.964-15.387 0-2.941 0.62-5.737 1.736-8.264l-0.052 0.131 3.84-9.12c2.891-8.448 10.762-14.414 20.027-14.414 0.272 0 0.542 0.005 0.812 0.015l-0.039-0.001h18.72z" />
<glyph unicode="&#xe93f;" glyph-name="user" d="M594.88 411.68c65.070 31.663 109.12 97.282 109.12 173.19 0 106.039-85.961 192-192 192s-192-85.961-192-192c0-75.908 44.050-141.527 107.982-172.69l1.138-0.501c-123.499-35.603-213.626-144.253-221.083-275.034l-0.037-0.806c0-8.837 7.163-16 16-16v0c8.837 0 16 7.163 16 16v0c8.044 143.74 126.566 257.254 271.6 257.254s263.556-113.514 271.568-256.544l0.032-0.71c0-8.837 7.163-16 16-16v0c8.837 0 16 7.163 16 16v0c-7.38 131.392-97.157 239.959-218.171 275.302l-2.149 0.538zM352 584.64c0 88.366 71.634 160 160 160s160-71.634 160-160c0-88.366-71.634-160-160-160v0c-88.366 0-160 71.634-160 160v0z" />
<glyph unicode="&#xe940;" glyph-name="work-board" d="M802.080 800h-580.16c-29.743-0.091-53.829-24.177-53.92-53.911v-596.169c0.091-29.743 24.177-53.829 53.911-53.92h580.169c29.743 0.091 53.829 24.177 53.92 53.911v596.169c-0.091 29.743-24.177 53.829-53.911 53.92h-0.009zM226.080 768h571.68c14.492 0 26.24-11.748 26.24-26.24v0-111.040h-624v111.040c0.090 14.456 11.784 26.15 26.231 26.24h0.009zM797.76 128h-571.52c-14.492 0-26.24 11.748-26.24 26.24v0 444.48h624v-444.48c0-14.492-11.748-26.24-26.24-26.24v0zM625.44 464h-233.6c-8.837 0-16-7.163-16-16s7.163-16 16-16v0h233.6c8.837 0 16 7.163 16 16s-7.163 16-16 16v0zM625.44 305.92h-233.6c-8.837 0-16-7.163-16-16s7.163-16 16-16v0h233.6c8.837 0 16 7.163 16 16s-7.163 16-16 16v0zM310.24 696.32c0-8.837-7.163-16-16-16s-16 7.163-16 16c0 8.837 7.163 16 16 16s16-7.163 16-16zM385.44 696.32c0-8.837-7.163-16-16-16s-16 7.163-16 16c0 8.837 7.163 16 16 16s16-7.163 16-16z" />
<glyph unicode="&#xe941;" glyph-name="workflow" d="M419.68 718.24h401.28c8.483 0 15.36-6.877 15.36-15.36v-1.28c0-8.483-6.877-15.36-15.36-15.36h-401.28c-8.483 0-15.36 6.877-15.36 15.36v1.28c0 8.483 6.877 15.36 15.36 15.36zM419.68 203.52h401.28c8.483 0 15.36-6.877 15.36-15.36v-1.28c0-8.483-6.877-15.36-15.36-15.36h-401.28c-8.483 0-15.36 6.877-15.36 15.36v1.28c0 8.483 6.877 15.36 15.36 15.36zM419.68 460.96h401.28c8.483 0 15.36-6.877 15.36-15.36v-1.28c0-8.483-6.877-15.36-15.36-15.36h-401.28c-8.483 0-15.36 6.877-15.36 15.36v1.28c0 8.483 6.877 15.36 15.36 15.36zM332.32 524.96h-116.32c-7.563-0.089-13.671-6.197-13.76-13.751v-116.329c0.089-7.563 6.197-13.671 13.751-13.76h116.329c7.563 0.089 13.671 6.197 13.76 13.751v116.169c0 0 0 0.001 0 0.001 0 7.632-6.141 13.829-13.751 13.919h-0.009zM310.88 419.36c0-1.767-1.433-3.2-3.2-3.2h-67.68c-1.767 0-3.2 1.433-3.2 3.2v0 67.2c0 1.767 1.433 3.2 3.2 3.2v0h67.2c1.767 0 3.2-1.433 3.2-3.2v0zM332.32 259.52h-116.32c-7.563-0.089-13.671-6.197-13.76-13.751v-116.329c0.089-7.563 6.197-13.671 13.751-13.76h116.329c7.563 0.089 13.671 6.197 13.76 13.751v116.329c-0.089 7.563-6.197 13.671-13.751 13.76h-0.009zM310.88 153.92c0-1.767-1.433-3.2-3.2-3.2h-67.68c-1.767 0-3.2 1.433-3.2 3.2v0 67.2c0.168 1.624 1.529 2.88 3.184 2.88 0.006 0 0.011 0 0.017 0h67.199c1.767 0 3.2-1.433 3.2-3.2v0zM330.72 775.36l-76.8-76.8-36.16 36.16c-3.194 3.194-7.606 5.169-12.48 5.169-9.747 0-17.649-7.902-17.649-17.649 0-4.874 1.975-9.286 5.169-12.48v0l48-48c3.206-3.168 7.614-5.124 12.48-5.124s9.274 1.957 12.482 5.126l89.118 89.118c3.194 3.194 5.169 7.606 5.169 12.48 0 9.747-7.902 17.649-17.649 17.649-4.874 0-9.286-1.975-12.48-5.169v0z" />
</font>
</defs>
</svg>
